<svg width="836" height="125" viewBox="0 0 836 125" fill="none" xmlns="http://www.w3.org/2000/svg">
<g filter="url(#filter0_ddd_303_2569)">
<rect x="21" y="5" width="173" height="64" rx="8" fill="white"/>
<path d="M37 29V45H69V29H37Z" fill="#012169"/>
<path d="M37 39.6667H44.0889L37 43.2111V45H40.5777L50.3333 40.1222V45H55.6667V40.1222L65.4222 45H69V43.2112L61.911 39.6667H69V34.3333H61.911L69 30.7888V29H65.4223L55.6667 33.8778V29H50.3333V33.8778L40.5776 29H37V30.7889L44.0889 34.3333H37V39.6667Z" fill="white"/>
<path d="M37 30.1926L45.2814 34.3333H50.0517L39.385 29H37V30.1926Z" fill="#C8102E"/>
<path d="M37 35.4V38.6H51.4V45H54.6V38.6H69V35.4H54.6V29H51.4V35.4H37Z" fill="#C8102E"/>
<path d="M66.6149 29L55.9482 34.3333H60.7185L69 30.1926V29H66.6149Z" fill="#C8102E"/>
<path d="M69 43.8075L60.7184 39.6667H55.9481L66.6148 45H69V43.8075Z" fill="#C8102E"/>
<path d="M39.3852 45L50.0519 39.6667H45.2816L37 43.8075V45H39.3852Z" fill="#C8102E"/>
<path d="M90.248 30.192C89.4267 30.192 88.7333 30.0373 88.168 29.728C87.6027 29.4187 87.144 29.008 86.792 28.496C86.4507 27.984 86.2053 27.408 86.056 26.768C85.9067 26.128 85.832 25.472 85.832 24.8C85.832 23.5627 86.0027 22.48 86.344 21.552C86.696 20.624 87.1973 19.904 87.848 19.392C88.4987 18.8693 89.288 18.608 90.216 18.608C90.952 18.608 91.5813 18.752 92.104 19.04C92.6267 19.328 93.032 19.712 93.32 20.192C93.6187 20.672 93.8 21.1947 93.864 21.76H92.28C92.184 21.2053 91.9547 20.7787 91.592 20.48C91.2293 20.1813 90.7653 20.032 90.2 20.032C89.4213 20.032 88.776 20.4 88.264 21.136C87.7627 21.8613 87.496 22.9813 87.464 24.496C87.72 24.0267 88.1147 23.6267 88.648 23.296C89.192 22.9653 89.816 22.8 90.52 22.8C91.1493 22.8 91.736 22.9493 92.28 23.248C92.8347 23.5467 93.2827 23.968 93.624 24.512C93.976 25.0453 94.152 25.68 94.152 26.416C94.152 27.0667 93.992 27.68 93.672 28.256C93.352 28.832 92.8987 29.3013 92.312 29.664C91.736 30.016 91.048 30.192 90.248 30.192ZM90.152 28.72C90.6 28.72 91 28.624 91.352 28.432C91.704 28.24 91.9813 27.9787 92.184 27.648C92.3867 27.3067 92.488 26.9227 92.488 26.496C92.488 25.8133 92.264 25.2693 91.816 24.864C91.3787 24.4587 90.8187 24.256 90.136 24.256C89.688 24.256 89.2827 24.3573 88.92 24.56C88.568 24.7627 88.2907 25.0347 88.088 25.376C87.8853 25.7067 87.784 26.0747 87.784 26.48C87.784 26.9173 87.8853 27.3067 88.088 27.648C88.3013 27.9787 88.584 28.24 88.936 28.432C89.2987 28.624 89.704 28.72 90.152 28.72ZM100.405 30.192C99.392 30.192 98.5174 29.952 97.7814 29.472C97.056 28.9813 96.496 28.304 96.1014 27.44C95.7174 26.5653 95.5254 25.552 95.5254 24.4C95.5254 23.248 95.7174 22.24 96.1014 21.376C96.496 20.5013 97.056 19.824 97.7814 19.344C98.5174 18.8533 99.392 18.608 100.405 18.608C101.419 18.608 102.288 18.8533 103.013 19.344C103.739 19.824 104.293 20.5013 104.677 21.376C105.072 22.24 105.269 23.248 105.269 24.4C105.269 25.552 105.072 26.5653 104.677 27.44C104.293 28.304 103.739 28.9813 103.013 29.472C102.288 29.952 101.419 30.192 100.405 30.192ZM100.405 28.672C101.013 28.672 101.552 28.5013 102.021 28.16C102.501 27.8187 102.875 27.328 103.141 26.688C103.408 26.048 103.541 25.2853 103.541 24.4C103.541 23.5147 103.408 22.752 103.141 22.112C102.875 21.472 102.501 20.9813 102.021 20.64C101.552 20.2987 101.013 20.128 100.405 20.128C99.7867 20.128 99.2427 20.2987 98.7734 20.64C98.304 20.9813 97.936 21.472 97.6694 22.112C97.4027 22.752 97.2694 23.5147 97.2694 24.4C97.2694 25.2853 97.4027 26.048 97.6694 26.688C97.936 27.328 98.304 27.8187 98.7734 28.16C99.2427 28.5013 99.7867 28.672 100.405 28.672ZM107.468 30L111.804 20.256H105.98V18.8H113.548V20.032L109.244 30H107.468ZM115.694 30L120.03 20.256H114.206V18.8H121.774V20.032L117.47 30H115.694ZM123.921 30L128.257 20.256H122.433V18.8H130.001V20.032L125.697 30H123.921Z" fill="#242424"/>
<path d="M84 54V44H92V54H84ZM91.68 54V44H99.68V54H91.68ZM99.36 54V44H107.36V54H99.36ZM107.04 54V44H115.04V54H107.04ZM114.72 54V44H122.72V54H114.72ZM122.4 54V44H130.4V54H122.4ZM130.08 54V44H138.08V54H130.08ZM137.76 54V44H145.76V54H137.76ZM145.44 54V44H153.44V54H145.44ZM153.12 54V44H161.12V54H153.12ZM160.8 54V44H168.8V54H160.8ZM168.48 54V44H176.48V54H168.48Z" fill="#EFEFEF"/>
</g>
<path d="M77.41 95.238C76.192 95.238 75.24 94.958 74.568 94.37C73.882 93.782 73.504 93.012 73.42 92.046L74.764 91.85C74.862 92.522 75.128 93.082 75.562 93.502C75.996 93.936 76.626 94.146 77.452 94.146C78.068 94.146 78.586 94.006 79.02 93.726C79.44 93.446 79.664 93.026 79.664 92.438C79.664 91.892 79.51 91.486 79.202 91.234C78.894 90.982 78.418 90.786 77.774 90.646L76.332 90.352C74.666 90.016 73.84 89.092 73.84 87.608C73.84 86.768 74.148 86.096 74.778 85.592C75.394 85.088 76.234 84.822 77.298 84.822C78.334 84.822 79.174 85.06 79.846 85.536C80.504 86.012 80.882 86.726 80.98 87.65L79.65 87.93C79.468 86.558 78.67 85.872 77.27 85.872C76.654 85.872 76.15 86.026 75.772 86.306C75.394 86.6 75.212 86.992 75.212 87.482C75.212 87.958 75.338 88.336 75.604 88.602C75.856 88.882 76.276 89.078 76.836 89.19L78.292 89.498C79.16 89.68 79.832 89.988 80.308 90.408C80.784 90.842 81.036 91.472 81.036 92.312C81.036 93.152 80.714 93.838 80.098 94.398C79.482 94.958 78.586 95.238 77.41 95.238ZM82.6496 95V84.85H83.8396V89.316C84.2596 88.308 85.0296 87.804 86.1356 87.804C86.8916 87.804 87.4656 88.056 87.8576 88.532C88.2496 89.008 88.4456 89.722 88.4456 90.646V95H87.2556V90.73C87.2556 89.484 86.7376 88.854 85.7296 88.854C85.1276 88.854 84.6656 89.078 84.3296 89.512C83.9936 89.946 83.8396 90.562 83.8396 91.346V95H82.6496ZM93.1074 95.168C92.1134 95.168 91.3154 94.846 90.7274 94.188C90.1394 93.53 89.8454 92.634 89.8454 91.5C89.8454 90.38 90.1394 89.484 90.7274 88.826C91.3154 88.168 92.1134 87.832 93.1074 87.832C94.0874 87.832 94.8854 88.168 95.4734 88.826C96.0614 89.484 96.3694 90.38 96.3694 91.5C96.3694 92.634 96.0614 93.53 95.4734 94.188C94.8854 94.846 94.0874 95.168 93.1074 95.168ZM93.1074 94.132C93.7374 94.132 94.2274 93.908 94.5774 93.46C94.9274 93.012 95.1094 92.368 95.1094 91.5C95.1094 90.646 94.9274 89.988 94.5774 89.54C94.2274 89.092 93.7374 88.868 93.1074 88.868C92.4634 88.868 91.9734 89.092 91.6234 89.54C91.2734 89.988 91.1054 90.646 91.1054 91.5C91.1054 92.368 91.2734 93.012 91.6234 93.46C91.9734 93.908 92.4634 94.132 93.1074 94.132ZM99.0807 89.596C99.2487 89.078 99.5287 88.658 99.8927 88.322C100.257 88 100.705 87.832 101.209 87.832C101.321 87.832 101.405 87.846 101.461 87.846V89.008H101.405C100.733 89.008 100.229 89.19 99.8647 89.554C99.6547 89.764 99.5007 90.016 99.3887 90.324C99.2767 90.632 99.2067 90.898 99.1927 91.122C99.1647 91.346 99.1647 91.64 99.1647 92.004V95H97.9747V88H99.0807V89.596ZM102.031 88.98V88H103.333V86.166L104.523 85.662V88H106.273V88.98H104.523V92.858C104.523 93.264 104.593 93.558 104.761 93.74C104.929 93.922 105.181 94.006 105.545 94.006C105.741 94.006 105.993 93.978 106.273 93.908V95C105.965 95.084 105.615 95.126 105.237 95.126C104.523 95.126 104.033 94.944 103.753 94.552C103.473 94.174 103.333 93.628 103.333 92.9V88.98H102.031ZM114.944 95.238C113.474 95.238 112.354 94.748 111.598 93.768C110.842 92.788 110.464 91.542 110.464 90.002C110.464 88.434 110.856 87.188 111.64 86.236C112.424 85.298 113.53 84.822 114.986 84.822C116.148 84.822 117.058 85.144 117.73 85.76C118.388 86.39 118.78 87.244 118.92 88.308L117.562 88.448C117.45 87.692 117.17 87.076 116.722 86.628C116.274 86.18 115.672 85.956 114.916 85.956C113.95 85.956 113.194 86.334 112.662 87.062C112.13 87.79 111.864 88.77 111.864 89.988C111.864 91.192 112.13 92.186 112.662 92.942C113.194 93.698 113.964 94.076 114.944 94.076C115.644 94.076 116.232 93.866 116.708 93.432C117.184 92.998 117.492 92.41 117.632 91.654L118.92 91.878C118.71 92.886 118.276 93.698 117.618 94.314C116.96 94.93 116.064 95.238 114.944 95.238ZM123.166 95.168C122.172 95.168 121.374 94.846 120.786 94.188C120.198 93.53 119.904 92.634 119.904 91.5C119.904 90.38 120.198 89.484 120.786 88.826C121.374 88.168 122.172 87.832 123.166 87.832C124.146 87.832 124.944 88.168 125.532 88.826C126.12 89.484 126.428 90.38 126.428 91.5C126.428 92.634 126.12 93.53 125.532 94.188C124.944 94.846 124.146 95.168 123.166 95.168ZM123.166 94.132C123.796 94.132 124.286 93.908 124.636 93.46C124.986 93.012 125.168 92.368 125.168 91.5C125.168 90.646 124.986 89.988 124.636 89.54C124.286 89.092 123.796 88.868 123.166 88.868C122.522 88.868 122.032 89.092 121.682 89.54C121.332 89.988 121.164 90.646 121.164 91.5C121.164 92.368 121.332 93.012 121.682 93.46C122.032 93.908 122.522 94.132 123.166 94.132ZM130.246 95.168C129.392 95.168 128.706 94.832 128.188 94.16C127.656 93.488 127.404 92.606 127.404 91.5C127.404 90.436 127.67 89.554 128.23 88.868C128.79 88.182 129.504 87.832 130.386 87.832C131.31 87.832 131.996 88.238 132.444 89.036V84.85H133.634V95H132.514V93.698C132.066 94.678 131.31 95.168 130.246 95.168ZM130.568 94.118C131.142 94.118 131.604 93.908 131.954 93.46C132.29 93.012 132.472 92.424 132.472 91.668V91.346C132.472 90.59 132.29 89.988 131.954 89.54C131.618 89.106 131.156 88.882 130.568 88.882C129.966 88.882 129.504 89.12 129.168 89.582C128.832 90.044 128.664 90.688 128.664 91.5C128.664 92.326 128.832 92.97 129.168 93.432C129.504 93.894 129.966 94.118 130.568 94.118ZM141.473 91.01V91.85H136.503C136.503 92.536 136.699 93.082 137.077 93.502C137.455 93.922 137.959 94.118 138.589 94.118C139.513 94.118 140.129 93.684 140.451 92.788L141.431 93.222C140.927 94.524 139.961 95.168 138.505 95.168C137.497 95.168 136.713 94.86 136.153 94.244C135.593 93.628 135.313 92.732 135.313 91.584C135.313 90.408 135.593 89.498 136.153 88.826C136.713 88.168 137.483 87.832 138.491 87.832C139.443 87.832 140.171 88.112 140.689 88.644C141.207 89.19 141.473 89.974 141.473 91.01ZM140.269 90.884V90.73C140.269 90.1 140.101 89.61 139.793 89.274C139.485 88.938 139.037 88.77 138.463 88.77C137.847 88.77 137.371 88.966 137.035 89.33C136.699 89.708 136.517 90.226 136.503 90.884H140.269Z" fill="black"/>
<g filter="url(#filter1_ddd_303_2569)">
<rect x="210" y="5" width="186" height="64" rx="8" fill="white"/>
<path d="M258 28.5789H226V45.421H258V28.5789Z" fill="#B22234"/>
<path fill-rule="evenodd" clip-rule="evenodd" d="M258 31.17H226V29.8744H258V31.17ZM226 32.4655H258V33.7611H226V32.4655ZM258 36.3522H226V35.0566H258V36.3522ZM226 37.6477H258V38.9433H226V37.6477ZM258 41.5343H226V40.2388H258V41.5343ZM226 42.8299H258V44.1254H226V42.8299Z" fill="white"/>
<path d="M238.8 28.5789H226V37.6477L238.8 37.6477V28.5789Z" fill="#3C3B6E"/>
<path d="M227.067 28.9675L227.183 29.3256H227.559L227.255 29.5469L227.371 29.905L227.067 29.6837L226.762 29.905L226.878 29.5469L226.574 29.3256H226.95L227.067 28.9675Z" fill="white"/>
<path d="M227.067 36.2226L227.183 36.5807H227.559L227.255 36.802L227.371 37.16L227.067 36.9387L226.762 37.16L226.878 36.802L226.574 36.5807H226.95L227.067 36.2226Z" fill="white"/>
<path d="M227.183 31.1394L227.067 30.7813L226.95 31.1394H226.574L226.878 31.3607L226.762 31.7188L227.067 31.4975L227.371 31.7188L227.255 31.3607L227.559 31.1394H227.183Z" fill="white"/>
<path d="M227.067 32.5951L227.183 32.9531H227.559L227.255 33.1744L227.371 33.5325L227.067 33.3112L226.762 33.5325L226.878 33.1744L226.574 32.9531H226.95L227.067 32.5951Z" fill="white"/>
<path d="M227.183 34.7669L227.067 34.4089L226.95 34.7669H226.574L226.878 34.9882L226.762 35.3463L227.067 35.125L227.371 35.3463L227.255 34.9882L227.559 34.7669H227.183Z" fill="white"/>
<path d="M229.2 28.9675L229.316 29.3256H229.693L229.388 29.5469L229.504 29.905L229.2 29.6837L228.895 29.905L229.012 29.5469L228.707 29.3256H229.084L229.2 28.9675Z" fill="white"/>
<path d="M228.25 30.2325L228.133 29.8744L228.017 30.2325H227.64L227.945 30.4538L227.829 30.8119L228.133 30.5906L228.438 30.8119L228.322 30.4538L228.626 30.2325H228.25Z" fill="white"/>
<path d="M228.133 31.6882L228.25 32.0463H228.626L228.322 32.2676L228.438 32.6257L228.133 32.4044L227.829 32.6257L227.945 32.2676L227.64 32.0463H228.017L228.133 31.6882Z" fill="white"/>
<path d="M228.25 33.86L228.133 33.502L228.017 33.86H227.64L227.945 34.0813L227.829 34.4394L228.133 34.2181L228.438 34.4394L228.322 34.0813L228.626 33.86H228.25Z" fill="white"/>
<path d="M228.133 35.3158L228.25 35.6738H228.626L228.322 35.8951L228.438 36.2532L228.133 36.0319L227.829 36.2532L227.945 35.8951L227.64 35.6738H228.017L228.133 35.3158Z" fill="white"/>
<path d="M229.316 31.1394L229.2 30.7813L229.084 31.1394H228.707L229.012 31.3607L228.895 31.7188L229.2 31.4975L229.504 31.7188L229.388 31.3607L229.693 31.1394H229.316Z" fill="white"/>
<path d="M229.2 32.5951L229.316 32.9531H229.693L229.388 33.1744L229.504 33.5325L229.2 33.3112L228.895 33.5325L229.012 33.1744L228.707 32.9531H229.084L229.2 32.5951Z" fill="white"/>
<path d="M229.316 34.7669L229.2 34.4089L229.084 34.7669H228.707L229.012 34.9882L228.895 35.3463L229.2 35.125L229.504 35.3463L229.388 34.9882L229.693 34.7669H229.316Z" fill="white"/>
<path d="M230.267 29.8744L230.383 30.2325H230.759L230.455 30.4538L230.571 30.8119L230.267 30.5906L229.962 30.8119L230.078 30.4538L229.774 30.2325H230.15L230.267 29.8744Z" fill="white"/>
<path d="M229.316 36.5807L229.2 36.2226L229.084 36.5807H228.707L229.012 36.802L228.895 37.16L229.2 36.9387L229.504 37.16L229.388 36.802L229.693 36.5807H229.316Z" fill="white"/>
<path d="M230.267 31.6882L230.383 32.0463H230.759L230.455 32.2676L230.571 32.6257L230.267 32.4044L229.962 32.6257L230.078 32.2676L229.774 32.0463H230.15L230.267 31.6882Z" fill="white"/>
<path d="M230.383 33.86L230.267 33.502L230.15 33.86H229.774L230.078 34.0813L229.962 34.4394L230.267 34.2181L230.571 34.4394L230.455 34.0813L230.759 33.86H230.383Z" fill="white"/>
<path d="M230.267 35.3158L230.383 35.6738H230.759L230.455 35.8951L230.571 36.2532L230.267 36.0319L229.962 36.2532L230.078 35.8951L229.774 35.6738H230.15L230.267 35.3158Z" fill="white"/>
<path d="M231.333 28.9675L231.45 29.3256H231.826L231.521 29.5469L231.638 29.905L231.333 29.6837L231.029 29.905L231.145 29.5469L230.84 29.3256H231.217L231.333 28.9675Z" fill="white"/>
<path d="M231.333 30.7813L231.45 31.1394H231.826L231.521 31.3607L231.638 31.7188L231.333 31.4975L231.029 31.7188L231.145 31.3607L230.84 31.1394H231.217L231.333 30.7813Z" fill="white"/>
<path d="M231.333 32.5951L231.45 32.9531H231.826L231.521 33.1744L231.638 33.5325L231.333 33.3112L231.029 33.5325L231.145 33.1744L230.84 32.9531H231.217L231.333 32.5951Z" fill="white"/>
<path d="M231.333 36.2226L231.45 36.5807H231.826L231.521 36.802L231.638 37.16L231.333 36.9387L231.029 37.16L231.145 36.802L230.84 36.5807H231.217L231.333 36.2226Z" fill="white"/>
<path d="M231.333 34.4089L231.45 34.7669H231.826L231.521 34.9882L231.638 35.3463L231.333 35.125L231.029 35.3463L231.145 34.9882L230.84 34.7669H231.217L231.333 34.4089Z" fill="white"/>
<path d="M234.533 29.8744L234.65 30.2325H235.026L234.721 30.4538L234.838 30.8119L234.533 30.5906L234.229 30.8119L234.345 30.4538L234.04 30.2325H234.417L234.533 29.8744Z" fill="white"/>
<path d="M232.4 29.8744L232.516 30.2325H232.893L232.588 30.4538L232.705 30.8119L232.4 30.5906L232.095 30.8119L232.212 30.4538L231.907 30.2325H232.284L232.4 29.8744Z" fill="white"/>
<path d="M232.4 31.6882L232.516 32.0463H232.893L232.588 32.2676L232.705 32.6257L232.4 32.4044L232.095 32.6257L232.212 32.2676L231.907 32.0463H232.284L232.4 31.6882Z" fill="white"/>
<path d="M232.4 33.502L232.516 33.86H232.893L232.588 34.0813L232.705 34.4394L232.4 34.2181L232.095 34.4394L232.212 34.0813L231.907 33.86H232.284L232.4 33.502Z" fill="white"/>
<path d="M232.4 35.3158L232.516 35.6738H232.893L232.588 35.8951L232.705 36.2532L232.4 36.0319L232.095 36.2532L232.212 35.8951L231.907 35.6738H232.284L232.4 35.3158Z" fill="white"/>
<path d="M234.533 31.6882L234.65 32.0463H235.026L234.721 32.2676L234.838 32.6257L234.533 32.4044L234.229 32.6257L234.345 32.2676L234.04 32.0463H234.417L234.533 31.6882Z" fill="white"/>
<path d="M233.466 36.2226L233.583 36.5807H233.959L233.655 36.802L233.771 37.16L233.466 36.9387L233.162 37.16L233.278 36.802L232.974 36.5807H233.35L233.466 36.2226Z" fill="white"/>
<path d="M234.533 33.502L234.65 33.86H235.026L234.721 34.0813L234.838 34.4394L234.533 34.2181L234.229 34.4394L234.345 34.0813L234.04 33.86H234.417L234.533 33.502Z" fill="white"/>
<path d="M234.533 35.3158L234.65 35.6738H235.026L234.721 35.8951L234.838 36.2532L234.533 36.0319L234.229 36.2532L234.345 35.8951L234.04 35.6738H234.417L234.533 35.3158Z" fill="white"/>
<path d="M233.466 28.9675L233.583 29.3256H233.959L233.655 29.5469L233.771 29.905L233.466 29.6837L233.162 29.905L233.278 29.5469L232.974 29.3256H233.35L233.466 28.9675Z" fill="white"/>
<path d="M233.466 30.7813L233.583 31.1394H233.959L233.655 31.3607L233.771 31.7188L233.466 31.4975L233.162 31.7188L233.278 31.3607L232.974 31.1394H233.35L233.466 30.7813Z" fill="white"/>
<path d="M233.466 32.5951L233.583 32.9531H233.959L233.655 33.1744L233.771 33.5325L233.466 33.3112L233.162 33.5325L233.278 33.1744L232.974 32.9531H233.35L233.466 32.5951Z" fill="white"/>
<path d="M233.466 34.4089L233.583 34.7669H233.959L233.655 34.9882L233.771 35.3463L233.466 35.125L233.162 35.3463L233.278 34.9882L232.974 34.7669H233.35L233.466 34.4089Z" fill="white"/>
<path d="M235.716 29.3256L235.6 28.9675L235.484 29.3256H235.107L235.412 29.5469L235.295 29.905L235.6 29.6837L235.905 29.905L235.788 29.5469L236.093 29.3256H235.716Z" fill="white"/>
<path d="M235.6 30.7813L235.716 31.1394H236.093L235.788 31.3607L235.905 31.7188L235.6 31.4975L235.295 31.7188L235.412 31.3607L235.107 31.1394H235.484L235.6 30.7813Z" fill="white"/>
<path d="M235.6 32.5951L235.716 32.9531H236.093L235.788 33.1744L235.905 33.5325L235.6 33.3112L235.295 33.5325L235.412 33.1744L235.107 32.9531H235.484L235.6 32.5951Z" fill="white"/>
<path d="M235.6 34.4089L235.716 34.7669H236.093L235.788 34.9882L235.905 35.3463L235.6 35.125L235.295 35.3463L235.412 34.9882L235.107 34.7669H235.484L235.6 34.4089Z" fill="white"/>
<path d="M235.6 36.2226L235.716 36.5807H236.093L235.788 36.802L235.905 37.16L235.6 36.9387L235.295 37.16L235.412 36.802L235.107 36.5807H235.484L235.6 36.2226Z" fill="white"/>
<path d="M236.667 29.8744L236.783 30.2325H237.16L236.855 30.4538L236.971 30.8119L236.667 30.5906L236.362 30.8119L236.478 30.4538L236.174 30.2325H236.55L236.667 29.8744Z" fill="white"/>
<path d="M236.667 31.6882L236.783 32.0463H237.16L236.855 32.2676L236.971 32.6257L236.667 32.4044L236.362 32.6257L236.478 32.2676L236.174 32.0463H236.55L236.667 31.6882Z" fill="white"/>
<path d="M236.667 33.502L236.783 33.86H237.16L236.855 34.0813L236.971 34.4394L236.667 34.2181L236.362 34.4394L236.478 34.0813L236.174 33.86H236.55L236.667 33.502Z" fill="white"/>
<path d="M236.667 35.3158L236.783 35.6738H237.16L236.855 35.8951L236.971 36.2532L236.667 36.0319L236.362 36.2532L236.478 35.8951L236.174 35.6738H236.55L236.667 35.3158Z" fill="white"/>
<path d="M237.733 28.9675L237.85 29.3256H238.226L237.922 29.5469L238.038 29.905L237.733 29.6837L237.429 29.905L237.545 29.5469L237.24 29.3256H237.617L237.733 28.9675Z" fill="white"/>
<path d="M237.733 30.7813L237.85 31.1394H238.226L237.922 31.3607L238.038 31.7188L237.733 31.4975L237.429 31.7188L237.545 31.3607L237.24 31.1394H237.617L237.733 30.7813Z" fill="white"/>
<path d="M237.733 32.5951L237.85 32.9531H238.226L237.922 33.1744L238.038 33.5325L237.733 33.3112L237.429 33.5325L237.545 33.1744L237.24 32.9531H237.617L237.733 32.5951Z" fill="white"/>
<path d="M237.733 34.4089L237.85 34.7669H238.226L237.922 34.9882L238.038 35.3463L237.733 35.125L237.429 35.3463L237.545 34.9882L237.24 34.7669H237.617L237.733 34.4089Z" fill="white"/>
<path d="M237.733 36.2226L237.85 36.5807H238.226L237.922 36.802L238.038 37.16L237.733 36.9387L237.429 37.16L237.545 36.802L237.24 36.5807H237.617L237.733 36.2226Z" fill="white"/>
<path d="M278.896 32.692C278.16 32.692 277.531 32.548 277.008 32.26C276.485 31.972 276.075 31.588 275.776 31.108C275.488 30.628 275.312 30.1053 275.248 29.54H276.832C276.928 30.0947 277.157 30.5213 277.52 30.82C277.883 31.1187 278.347 31.268 278.912 31.268C279.691 31.268 280.331 30.9053 280.832 30.18C281.344 29.444 281.616 28.3187 281.648 26.804C281.392 27.2733 280.992 27.6733 280.448 28.004C279.915 28.3347 279.296 28.5 278.592 28.5C277.963 28.5 277.371 28.3507 276.816 28.052C276.261 27.7533 275.813 27.3373 275.472 26.804C275.131 26.26 274.96 25.62 274.96 24.884C274.96 24.2333 275.12 23.62 275.44 23.044C275.76 22.468 276.208 22.004 276.784 21.652C277.371 21.2893 278.064 21.108 278.864 21.108C279.685 21.108 280.379 21.2627 280.944 21.572C281.509 21.8813 281.963 22.292 282.304 22.804C282.645 23.316 282.891 23.892 283.04 24.532C283.2 25.172 283.28 25.828 283.28 26.5C283.28 27.7373 283.104 28.82 282.752 29.748C282.411 30.676 281.915 31.4013 281.264 31.924C280.613 32.436 279.824 32.692 278.896 32.692ZM278.976 27.044C279.424 27.044 279.824 26.9427 280.176 26.74C280.528 26.5373 280.805 26.2707 281.008 25.94C281.221 25.5987 281.328 25.2253 281.328 24.82C281.328 24.3827 281.221 23.9987 281.008 23.668C280.805 23.3267 280.523 23.06 280.16 22.868C279.808 22.676 279.408 22.58 278.96 22.58C278.512 22.58 278.112 22.676 277.76 22.868C277.408 23.06 277.125 23.3267 276.912 23.668C276.709 23.9987 276.608 24.3773 276.608 24.804C276.608 25.4867 276.832 26.0307 277.28 26.436C277.728 26.8413 278.293 27.044 278.976 27.044ZM288.546 32.692C287.8 32.692 287.122 32.5587 286.514 32.292C285.917 32.0147 285.437 31.6307 285.074 31.14C284.722 30.6493 284.546 30.0733 284.546 29.412C284.546 28.74 284.733 28.1373 285.106 27.604C285.49 27.0707 285.997 26.708 286.626 26.516C286.061 26.292 285.624 25.9667 285.314 25.54C285.005 25.1027 284.85 24.6227 284.85 24.1C284.85 23.556 284.994 23.06 285.282 22.612C285.57 22.1533 285.986 21.7907 286.53 21.524C287.085 21.2467 287.757 21.108 288.546 21.108C289.336 21.108 290.002 21.2467 290.546 21.524C291.101 21.7907 291.522 22.1533 291.81 22.612C292.098 23.06 292.242 23.556 292.242 24.1C292.242 24.612 292.082 25.092 291.762 25.54C291.453 25.9773 291.016 26.3027 290.45 26.516C291.08 26.7187 291.581 27.0867 291.954 27.62C292.338 28.1427 292.53 28.74 292.53 29.412C292.53 30.0733 292.354 30.6493 292.002 31.14C291.65 31.6307 291.17 32.0147 290.562 32.292C289.965 32.5587 289.293 32.692 288.546 32.692ZM288.546 25.972C289.165 25.972 289.65 25.812 290.002 25.492C290.365 25.172 290.546 24.7613 290.546 24.26C290.546 23.6947 290.37 23.2627 290.018 22.964C289.666 22.6653 289.176 22.516 288.546 22.516C287.917 22.516 287.426 22.6653 287.074 22.964C286.722 23.2627 286.546 23.6947 286.546 24.26C286.546 24.7613 286.722 25.172 287.074 25.492C287.426 25.812 287.917 25.972 288.546 25.972ZM288.546 31.252C289.314 31.252 289.89 31.0707 290.274 30.708C290.658 30.3347 290.85 29.86 290.85 29.284C290.85 28.644 290.642 28.1533 290.226 27.812C289.821 27.46 289.261 27.284 288.546 27.284C287.832 27.284 287.266 27.46 286.85 27.812C286.434 28.1533 286.226 28.644 286.226 29.284C286.226 29.86 286.418 30.3347 286.802 30.708C287.197 31.0707 287.778 31.252 288.546 31.252ZM294.811 32.5L299.147 22.756H293.323V21.3H300.891V22.532L296.587 32.5H294.811ZM301.608 28.564V27.14H308.12V28.564H301.608ZM313.937 32.692C313.115 32.692 312.422 32.5373 311.857 32.228C311.291 31.9187 310.833 31.508 310.481 30.996C310.139 30.484 309.894 29.908 309.745 29.268C309.595 28.628 309.521 27.972 309.521 27.3C309.521 26.0627 309.691 24.98 310.033 24.052C310.385 23.124 310.886 22.404 311.537 21.892C312.187 21.3693 312.977 21.108 313.905 21.108C314.641 21.108 315.27 21.252 315.793 21.54C316.315 21.828 316.721 22.212 317.009 22.692C317.307 23.172 317.489 23.6947 317.553 24.26H315.969C315.873 23.7053 315.643 23.2787 315.281 22.98C314.918 22.6813 314.454 22.532 313.889 22.532C313.11 22.532 312.465 22.9 311.953 23.636C311.451 24.3613 311.185 25.4813 311.153 26.996C311.409 26.5267 311.803 26.1267 312.337 25.796C312.881 25.4653 313.505 25.3 314.209 25.3C314.838 25.3 315.425 25.4493 315.969 25.748C316.523 26.0467 316.971 26.468 317.313 27.012C317.665 27.5453 317.841 28.18 317.841 28.916C317.841 29.5667 317.681 30.18 317.361 30.756C317.041 31.332 316.587 31.8013 316.001 32.164C315.425 32.516 314.737 32.692 313.937 32.692ZM313.841 31.22C314.289 31.22 314.689 31.124 315.041 30.932C315.393 30.74 315.67 30.4787 315.873 30.148C316.075 29.8067 316.177 29.4227 316.177 28.996C316.177 28.3133 315.953 27.7693 315.505 27.364C315.067 26.9587 314.507 26.756 313.825 26.756C313.377 26.756 312.971 26.8573 312.609 27.06C312.257 27.2627 311.979 27.5347 311.777 27.876C311.574 28.2067 311.473 28.5747 311.473 28.98C311.473 29.4173 311.574 29.8067 311.777 30.148C311.99 30.4787 312.273 30.74 312.625 30.932C312.987 31.124 313.393 31.22 313.841 31.22ZM323.206 32.692C322.416 32.692 321.734 32.5533 321.158 32.276C320.582 31.988 320.123 31.5987 319.782 31.108C319.451 30.6067 319.248 30.0413 319.174 29.412H320.838C320.944 29.9453 321.211 30.388 321.638 30.74C322.064 31.0813 322.592 31.252 323.222 31.252C323.691 31.252 324.096 31.14 324.438 30.916C324.779 30.6813 325.046 30.372 325.238 29.988C325.43 29.604 325.526 29.172 325.526 28.692C325.526 27.9347 325.312 27.332 324.886 26.884C324.459 26.4253 323.92 26.196 323.27 26.196C322.715 26.196 322.24 26.3293 321.846 26.596C321.451 26.852 321.163 27.1773 320.982 27.572H319.366L320.326 21.3H326.374V22.788H321.606L321.03 25.78C321.275 25.5027 321.611 25.2733 322.038 25.092C322.475 24.9 322.966 24.804 323.51 24.804C324.267 24.804 324.918 24.98 325.462 25.332C326.006 25.6733 326.422 26.1373 326.71 26.724C327.008 27.3107 327.158 27.9613 327.158 28.676C327.158 29.4227 326.998 30.1 326.678 30.708C326.358 31.316 325.899 31.8013 325.302 32.164C324.715 32.516 324.016 32.692 323.206 32.692ZM333.945 32.5V30.26H328.329V28.916L333.673 21.3H335.625V28.788H337.193V30.26H335.625V32.5H333.945ZM330.169 28.788H334.041V23.172L330.169 28.788ZM338.266 28.564V27.14H344.778V28.564H338.266ZM350.066 32.692C349.341 32.692 348.68 32.564 348.082 32.308C347.496 32.0413 347.026 31.6413 346.674 31.108C346.322 30.5747 346.136 29.908 346.114 29.108H347.794C347.816 29.7053 348.018 30.212 348.402 30.628C348.797 31.0333 349.352 31.236 350.066 31.236C350.749 31.236 351.272 31.0493 351.634 30.676C351.997 30.292 352.178 29.8173 352.178 29.252C352.178 28.5693 351.933 28.0627 351.442 27.732C350.962 27.4013 350.37 27.236 349.666 27.236H348.834V25.828H349.682C350.312 25.828 350.818 25.6787 351.202 25.38C351.597 25.0813 351.794 24.66 351.794 24.116C351.794 23.6573 351.64 23.284 351.33 22.996C351.032 22.708 350.605 22.564 350.05 22.564C349.474 22.564 349.021 22.7347 348.69 23.076C348.36 23.4067 348.178 23.8227 348.146 24.324H346.466C346.488 23.6733 346.648 23.108 346.946 22.628C347.256 22.148 347.677 21.7747 348.21 21.508C348.744 21.2413 349.357 21.108 350.05 21.108C350.797 21.108 351.421 21.2413 351.922 21.508C352.434 21.764 352.818 22.116 353.074 22.564C353.341 23.0013 353.474 23.4813 353.474 24.004C353.474 24.6013 353.309 25.124 352.978 25.572C352.648 26.02 352.205 26.3187 351.65 26.468C352.29 26.6067 352.818 26.9213 353.234 27.412C353.65 27.892 353.858 28.516 353.858 29.284C353.858 29.9027 353.714 30.4733 353.426 30.996C353.138 31.508 352.712 31.9187 352.146 32.228C351.581 32.5373 350.888 32.692 350.066 32.692ZM355.407 32.5V31.284C356.132 30.708 356.826 30.1267 357.487 29.54C358.148 28.9533 358.735 28.3773 359.247 27.812C359.77 27.236 360.18 26.676 360.479 26.132C360.778 25.5773 360.927 25.044 360.927 24.532C360.927 24.1907 360.868 23.8707 360.751 23.572C360.634 23.2627 360.442 23.0173 360.175 22.836C359.908 22.644 359.551 22.548 359.103 22.548C358.431 22.548 357.924 22.7613 357.583 23.188C357.252 23.6147 357.092 24.1267 357.103 24.724H355.455C355.466 23.9347 355.631 23.2733 355.951 22.74C356.282 22.2067 356.719 21.8013 357.263 21.524C357.818 21.2467 358.442 21.108 359.135 21.108C360.191 21.108 361.034 21.4067 361.663 22.004C362.303 22.5907 362.623 23.412 362.623 24.468C362.623 25.0973 362.468 25.7213 362.159 26.34C361.86 26.9587 361.466 27.556 360.975 28.132C360.495 28.6973 359.978 29.2307 359.423 29.732C358.868 30.2333 358.34 30.6867 357.839 31.092H362.959V32.5H355.407ZM365.619 32.5V23.22L363.811 23.636V22.388L366.291 21.3H367.379V32.5H365.619ZM373.815 32.692C372.801 32.692 371.927 32.452 371.191 31.972C370.465 31.4813 369.905 30.804 369.511 29.94C369.127 29.0653 368.935 28.052 368.935 26.9C368.935 25.748 369.127 24.74 369.511 23.876C369.905 23.0013 370.465 22.324 371.191 21.844C371.927 21.3533 372.801 21.108 373.815 21.108C374.828 21.108 375.697 21.3533 376.423 21.844C377.148 22.324 377.703 23.0013 378.087 23.876C378.481 24.74 378.679 25.748 378.679 26.9C378.679 28.052 378.481 29.0653 378.087 29.94C377.703 30.804 377.148 31.4813 376.423 31.972C375.697 32.452 374.828 32.692 373.815 32.692ZM373.815 31.172C374.423 31.172 374.961 31.0013 375.431 30.66C375.911 30.3187 376.284 29.828 376.551 29.188C376.817 28.548 376.951 27.7853 376.951 26.9C376.951 26.0147 376.817 25.252 376.551 24.612C376.284 23.972 375.911 23.4813 375.431 23.14C374.961 22.7987 374.423 22.628 373.815 22.628C373.196 22.628 372.652 22.7987 372.183 23.14C371.713 23.4813 371.345 23.972 371.079 24.612C370.812 25.252 370.679 26.0147 370.679 26.9C370.679 27.7853 370.812 28.548 371.079 29.188C371.345 29.828 371.713 30.3187 372.183 30.66C372.652 31.0013 373.196 31.172 373.815 31.172Z" fill="#242424"/>
<path d="M273 51.5V41.5H281V51.5H273ZM280.68 51.5V41.5H288.68V51.5H280.68ZM288.36 51.5V41.5H296.36V51.5H288.36ZM296.04 51.5V41.5H304.04V51.5H296.04ZM303.72 51.5V41.5H311.72V51.5H303.72ZM311.4 51.5V41.5H319.4V51.5H311.4ZM319.08 51.5V41.5H327.08V51.5H319.08ZM326.76 51.5V41.5H334.76V51.5H326.76ZM334.44 51.5V41.5H342.44V51.5H334.44ZM342.12 51.5V41.5H350.12V51.5H342.12ZM349.8 51.5V41.5H357.8V51.5H349.8ZM357.48 51.5V41.5H365.48V51.5H357.48Z" fill="#EFEFEF"/>
</g>
<path d="M255.19 85.06H256.52V91.444C256.52 92.256 256.73 92.9 257.164 93.362C257.598 93.838 258.214 94.062 259.012 94.062C259.796 94.062 260.412 93.838 260.846 93.362C261.28 92.9 261.504 92.256 261.504 91.444V85.06H262.834V91.528C262.834 92.662 262.498 93.558 261.826 94.23C261.154 94.902 260.216 95.238 259.012 95.238C257.794 95.238 256.856 94.902 256.184 94.23C255.512 93.558 255.19 92.662 255.19 91.528V85.06ZM268.151 95.238C266.933 95.238 265.981 94.958 265.309 94.37C264.623 93.782 264.245 93.012 264.161 92.046L265.505 91.85C265.603 92.522 265.869 93.082 266.303 93.502C266.737 93.936 267.367 94.146 268.193 94.146C268.809 94.146 269.327 94.006 269.761 93.726C270.181 93.446 270.405 93.026 270.405 92.438C270.405 91.892 270.251 91.486 269.943 91.234C269.635 90.982 269.159 90.786 268.515 90.646L267.073 90.352C265.407 90.016 264.581 89.092 264.581 87.608C264.581 86.768 264.889 86.096 265.519 85.592C266.135 85.088 266.975 84.822 268.039 84.822C269.075 84.822 269.915 85.06 270.587 85.536C271.245 86.012 271.623 86.726 271.721 87.65L270.391 87.93C270.209 86.558 269.411 85.872 268.011 85.872C267.395 85.872 266.891 86.026 266.513 86.306C266.135 86.6 265.953 86.992 265.953 87.482C265.953 87.958 266.079 88.336 266.345 88.602C266.597 88.882 267.017 89.078 267.577 89.19L269.033 89.498C269.901 89.68 270.573 89.988 271.049 90.408C271.525 90.842 271.777 91.472 271.777 92.312C271.777 93.152 271.455 93.838 270.839 94.398C270.223 94.958 269.327 95.238 268.151 95.238ZM276.818 95V85.06H278.148V93.88H282.74V95H276.818ZM286.495 95.168C285.501 95.168 284.703 94.846 284.115 94.188C283.527 93.53 283.233 92.634 283.233 91.5C283.233 90.38 283.527 89.484 284.115 88.826C284.703 88.168 285.501 87.832 286.495 87.832C287.475 87.832 288.273 88.168 288.861 88.826C289.449 89.484 289.757 90.38 289.757 91.5C289.757 92.634 289.449 93.53 288.861 94.188C288.273 94.846 287.475 95.168 286.495 95.168ZM286.495 94.132C287.125 94.132 287.615 93.908 287.965 93.46C288.315 93.012 288.497 92.368 288.497 91.5C288.497 90.646 288.315 89.988 287.965 89.54C287.615 89.092 287.125 88.868 286.495 88.868C285.851 88.868 285.361 89.092 285.011 89.54C284.661 89.988 284.493 90.646 284.493 91.5C284.493 92.368 284.661 93.012 285.011 93.46C285.361 93.908 285.851 94.132 286.495 94.132ZM293.952 95.168C292.972 95.168 292.188 94.846 291.6 94.174C291.012 93.516 290.732 92.62 290.732 91.5C290.732 90.366 291.012 89.47 291.586 88.812C292.16 88.168 292.944 87.832 293.952 87.832C294.764 87.832 295.436 88.056 295.94 88.504C296.444 88.952 296.738 89.582 296.836 90.38L295.618 90.52C295.548 89.988 295.366 89.582 295.072 89.302C294.778 89.022 294.4 88.868 293.924 88.868C293.308 88.868 292.832 89.106 292.496 89.568C292.16 90.03 291.992 90.674 291.992 91.486C291.992 92.326 292.16 92.984 292.51 93.446C292.846 93.908 293.336 94.132 293.966 94.132C294.918 94.132 295.492 93.586 295.688 92.466L296.822 92.648C296.682 93.46 296.374 94.076 295.87 94.51C295.366 94.958 294.736 95.168 293.952 95.168ZM300.119 95.168C299.391 95.168 298.817 94.986 298.397 94.608C297.963 94.244 297.753 93.74 297.753 93.11C297.753 92.382 298.075 91.822 298.733 91.458C299.237 91.206 300.021 91.024 301.085 90.884L302.387 90.73V90.618C302.387 89.974 302.261 89.512 302.023 89.232C301.771 88.952 301.379 88.812 300.847 88.812C300.371 88.812 299.993 88.938 299.713 89.176C299.433 89.428 299.279 89.764 299.251 90.198H297.977C298.019 89.484 298.299 88.91 298.817 88.476C299.335 88.056 300.007 87.832 300.833 87.832C301.785 87.832 302.485 88.07 302.933 88.532C303.367 88.994 303.591 89.736 303.591 90.744V92.634C303.591 93.698 303.661 94.496 303.829 95H302.583C302.527 94.608 302.485 94.188 302.471 93.726C302.303 94.174 302.023 94.538 301.603 94.79C301.183 95.042 300.679 95.168 300.119 95.168ZM300.385 94.188C300.987 94.188 301.477 93.992 301.841 93.586C302.205 93.18 302.401 92.634 302.401 91.948V91.598L300.497 91.878C299.979 91.962 299.601 92.088 299.363 92.284C299.125 92.48 299.013 92.746 299.013 93.082C299.013 93.432 299.125 93.698 299.377 93.894C299.615 94.09 299.951 94.188 300.385 94.188ZM306.91 84.85V95H305.72V84.85H306.91ZM313.968 95V87.37C313.828 87.566 313.59 87.706 313.282 87.818C312.974 87.93 312.666 87.986 312.386 87.986H311.882V86.852H312.19C312.666 86.852 313.086 86.726 313.45 86.446C313.814 86.166 314.052 85.774 314.164 85.27H315.228V95H313.968ZM321.086 95.21C319.868 95.21 318.944 94.762 318.3 93.866C317.656 92.97 317.334 91.724 317.334 90.142C317.334 88.56 317.656 87.314 318.3 86.418C318.944 85.522 319.868 85.06 321.086 85.06C322.29 85.06 323.228 85.522 323.872 86.418C324.516 87.314 324.838 88.56 324.838 90.142C324.838 91.724 324.516 92.97 323.872 93.866C323.228 94.762 322.29 95.21 321.086 95.21ZM321.086 94.16C321.898 94.16 322.528 93.81 322.948 93.096C323.368 92.396 323.578 91.402 323.578 90.142C323.578 88.882 323.368 87.888 322.948 87.174C322.528 86.474 321.898 86.11 321.086 86.11C320.26 86.11 319.644 86.474 319.224 87.174C318.804 87.888 318.594 88.882 318.594 90.142C318.594 91.402 318.804 92.396 319.224 93.096C319.644 93.81 320.26 94.16 321.086 94.16ZM326.654 95V85.06H329.916C331.33 85.06 332.464 85.522 333.332 86.432C334.2 87.342 334.634 88.532 334.634 90.016C334.634 91.486 334.2 92.69 333.332 93.614C332.464 94.538 331.316 95 329.888 95H326.654ZM327.984 93.88H329.86C330.896 93.88 331.708 93.516 332.31 92.774C332.912 92.046 333.22 91.122 333.22 90.016C333.22 88.882 332.926 87.958 332.338 87.244C331.75 86.544 330.924 86.18 329.888 86.18H327.984V93.88ZM336.382 95V85.06H337.712V93.88H342.304V95H336.382ZM346.99 95.238C345.52 95.238 344.4 94.748 343.644 93.768C342.888 92.788 342.51 91.542 342.51 90.002C342.51 88.434 342.902 87.188 343.686 86.236C344.47 85.298 345.576 84.822 347.032 84.822C348.194 84.822 349.104 85.144 349.776 85.76C350.434 86.39 350.826 87.244 350.966 88.308L349.608 88.448C349.496 87.692 349.216 87.076 348.768 86.628C348.32 86.18 347.718 85.956 346.962 85.956C345.996 85.956 345.24 86.334 344.708 87.062C344.176 87.79 343.91 88.77 343.91 89.988C343.91 91.192 344.176 92.186 344.708 92.942C345.24 93.698 346.01 94.076 346.99 94.076C347.69 94.076 348.278 93.866 348.754 93.432C349.23 92.998 349.538 92.41 349.678 91.654L350.966 91.878C350.756 92.886 350.322 93.698 349.664 94.314C349.006 94.93 348.11 95.238 346.99 95.238Z" fill="black"/>
<path d="M466.41 95.238C465.192 95.238 464.24 94.958 463.568 94.37C462.882 93.782 462.504 93.012 462.42 92.046L463.764 91.85C463.862 92.522 464.128 93.082 464.562 93.502C464.996 93.936 465.626 94.146 466.452 94.146C467.068 94.146 467.586 94.006 468.02 93.726C468.44 93.446 468.664 93.026 468.664 92.438C468.664 91.892 468.51 91.486 468.202 91.234C467.894 90.982 467.418 90.786 466.774 90.646L465.332 90.352C463.666 90.016 462.84 89.092 462.84 87.608C462.84 86.768 463.148 86.096 463.778 85.592C464.394 85.088 465.234 84.822 466.298 84.822C467.334 84.822 468.174 85.06 468.846 85.536C469.504 86.012 469.882 86.726 469.98 87.65L468.65 87.93C468.468 86.558 467.67 85.872 466.27 85.872C465.654 85.872 465.15 86.026 464.772 86.306C464.394 86.6 464.212 86.992 464.212 87.482C464.212 87.958 464.338 88.336 464.604 88.602C464.856 88.882 465.276 89.078 465.836 89.19L467.292 89.498C468.16 89.68 468.832 89.988 469.308 90.408C469.784 90.842 470.036 91.472 470.036 92.312C470.036 93.152 469.714 93.838 469.098 94.398C468.482 94.958 467.586 95.238 466.41 95.238ZM472.507 95L470.533 88H471.765L473.025 92.998C473.081 93.278 473.137 93.558 473.179 93.824H473.207C473.207 93.81 473.263 93.53 473.389 92.998L474.663 88H475.951L477.225 92.998C477.337 93.53 477.407 93.81 477.407 93.824H477.435C477.463 93.558 477.519 93.278 477.589 92.998L478.849 88H480.081L478.107 95H476.805L475.475 89.96C475.391 89.68 475.349 89.428 475.321 89.176H475.293C475.265 89.428 475.209 89.68 475.139 89.96L473.809 95H472.507ZM486.878 91.01V91.85H481.908C481.908 92.536 482.104 93.082 482.482 93.502C482.86 93.922 483.364 94.118 483.994 94.118C484.918 94.118 485.534 93.684 485.856 92.788L486.836 93.222C486.332 94.524 485.366 95.168 483.91 95.168C482.902 95.168 482.118 94.86 481.558 94.244C480.998 93.628 480.718 92.732 480.718 91.584C480.718 90.408 480.998 89.498 481.558 88.826C482.118 88.168 482.888 87.832 483.896 87.832C484.848 87.832 485.576 88.112 486.094 88.644C486.612 89.19 486.878 89.974 486.878 91.01ZM485.674 90.884V90.73C485.674 90.1 485.506 89.61 485.198 89.274C484.89 88.938 484.442 88.77 483.868 88.77C483.252 88.77 482.776 88.966 482.44 89.33C482.104 89.708 481.922 90.226 481.908 90.884H485.674ZM490.773 95.168C489.919 95.168 489.233 94.832 488.715 94.16C488.183 93.488 487.931 92.606 487.931 91.5C487.931 90.436 488.197 89.554 488.757 88.868C489.317 88.182 490.031 87.832 490.913 87.832C491.837 87.832 492.523 88.238 492.971 89.036V84.85H494.161V95H493.041V93.698C492.593 94.678 491.837 95.168 490.773 95.168ZM491.095 94.118C491.669 94.118 492.131 93.908 492.481 93.46C492.817 93.012 492.999 92.424 492.999 91.668V91.346C492.999 90.59 492.817 89.988 492.481 89.54C492.145 89.106 491.683 88.882 491.095 88.882C490.493 88.882 490.031 89.12 489.695 89.582C489.359 90.044 489.191 90.688 489.191 91.5C489.191 92.326 489.359 92.97 489.695 93.432C490.031 93.894 490.493 94.118 491.095 94.118ZM496.386 86.698V85.2H497.744V86.698H496.386ZM496.47 95V88H497.66V95H496.47ZM502.219 95.168C501.379 95.168 500.707 94.986 500.175 94.608C499.643 94.244 499.321 93.712 499.209 93.012L500.413 92.802C500.497 93.25 500.693 93.586 501.015 93.824C501.323 94.076 501.743 94.188 502.261 94.188C502.709 94.188 503.073 94.09 503.325 93.894C503.577 93.698 503.717 93.432 503.717 93.124C503.717 92.83 503.633 92.606 503.465 92.452C503.297 92.312 503.045 92.2 502.709 92.144L501.337 91.892C500.091 91.668 499.475 91.01 499.475 89.932C499.475 89.316 499.713 88.812 500.189 88.42C500.665 88.028 501.323 87.832 502.135 87.832C502.919 87.832 503.549 88 504.053 88.336C504.557 88.672 504.837 89.134 504.907 89.722L503.731 89.988C503.647 89.624 503.465 89.344 503.185 89.12C502.905 88.91 502.527 88.798 502.079 88.798C501.631 88.798 501.267 88.896 501.015 89.078C500.763 89.274 500.637 89.54 500.637 89.876C500.637 90.408 500.987 90.744 501.715 90.87L503.073 91.122C504.277 91.36 504.893 91.99 504.893 93.026C504.893 93.67 504.655 94.188 504.179 94.58C503.703 94.972 503.059 95.168 502.219 95.168ZM506.603 95V84.85H507.793V89.316C508.213 88.308 508.983 87.804 510.089 87.804C510.845 87.804 511.419 88.056 511.811 88.532C512.203 89.008 512.399 89.722 512.399 90.646V95H511.209V90.73C511.209 89.484 510.691 88.854 509.683 88.854C509.081 88.854 508.619 89.078 508.283 89.512C507.947 89.946 507.793 90.562 507.793 91.346V95H506.603ZM517.926 95V85.06H519.816L522.448 92.704C522.574 93.096 522.658 93.404 522.7 93.642H522.728C522.756 93.404 522.84 93.096 522.98 92.704L525.612 85.06H527.502V95H526.284V87.328C526.284 86.908 526.298 86.558 526.34 86.264H526.284C526.228 86.642 526.13 87.02 525.99 87.398L523.358 95H522.07L519.438 87.398C519.298 87.02 519.2 86.642 519.144 86.264H519.088C519.116 86.558 519.144 86.908 519.144 87.328V95H517.926ZM532.511 95.168C531.517 95.168 530.719 94.846 530.131 94.188C529.543 93.53 529.249 92.634 529.249 91.5C529.249 90.38 529.543 89.484 530.131 88.826C530.719 88.168 531.517 87.832 532.511 87.832C533.491 87.832 534.289 88.168 534.877 88.826C535.465 89.484 535.773 90.38 535.773 91.5C535.773 92.634 535.465 93.53 534.877 94.188C534.289 94.846 533.491 95.168 532.511 95.168ZM532.511 94.132C533.141 94.132 533.631 93.908 533.981 93.46C534.331 93.012 534.513 92.368 534.513 91.5C534.513 90.646 534.331 89.988 533.981 89.54C533.631 89.092 533.141 88.868 532.511 88.868C531.867 88.868 531.377 89.092 531.027 89.54C530.677 89.988 530.509 90.646 530.509 91.5C530.509 92.368 530.677 93.012 531.027 93.46C531.377 93.908 531.867 94.132 532.511 94.132ZM540.794 95.168C540.262 95.168 539.814 95.056 539.422 94.804C539.03 94.552 538.75 94.216 538.568 93.796L538.358 95H537.448V84.85H538.638V89.218C538.834 88.812 539.114 88.476 539.506 88.224C539.884 87.972 540.332 87.832 540.864 87.832C541.704 87.832 542.39 88.182 542.908 88.854C543.412 89.54 543.678 90.422 543.678 91.5C543.678 92.606 543.412 93.488 542.88 94.16C542.348 94.832 541.662 95.168 540.794 95.168ZM540.472 94.118C541.074 94.118 541.55 93.894 541.9 93.418C542.236 92.942 542.418 92.312 542.418 91.5C542.418 90.702 542.25 90.072 541.914 89.596C541.578 89.12 541.102 88.882 540.486 88.882C539.898 88.882 539.436 89.106 539.1 89.54C538.764 89.988 538.61 90.59 538.61 91.346V91.71C538.61 92.452 538.764 93.04 539.1 93.474C539.436 93.908 539.884 94.118 540.472 94.118ZM545.203 86.698V85.2H546.561V86.698H545.203ZM545.287 95V88H546.477V95H545.287ZM549.972 84.85V95H548.782V84.85H549.972ZM557.818 91.01V91.85H552.848C552.848 92.536 553.044 93.082 553.422 93.502C553.8 93.922 554.304 94.118 554.934 94.118C555.858 94.118 556.474 93.684 556.796 92.788L557.776 93.222C557.272 94.524 556.306 95.168 554.85 95.168C553.842 95.168 553.058 94.86 552.498 94.244C551.938 93.628 551.658 92.732 551.658 91.584C551.658 90.408 551.938 89.498 552.498 88.826C553.058 88.168 553.828 87.832 554.836 87.832C555.788 87.832 556.516 88.112 557.034 88.644C557.552 89.19 557.818 89.974 557.818 91.01ZM556.614 90.884V90.73C556.614 90.1 556.446 89.61 556.138 89.274C555.83 88.938 555.382 88.77 554.808 88.77C554.192 88.77 553.716 88.966 553.38 89.33C553.044 89.708 552.862 90.226 552.848 90.884H556.614Z" fill="black"/>
<g filter="url(#filter2_ddd_303_2569)">
<rect x="412" y="5" width="197" height="64" rx="8" fill="white"/>
<path d="M428 27H460V47H428V27Z" fill="#006AA7"/>
<path d="M428 35H438V27H442V35H460V39H442V47H438V39H428V35Z" fill="#FECC00"/>
<path d="M476.96 26.064V24.64H479.984V21.808H481.456V24.64H484.48V26.064H481.456V28.912H479.984V26.064H476.96ZM491.358 30V27.76H485.742V26.416L491.086 18.8H493.038V26.288H494.606V27.76H493.038V30H491.358ZM487.582 26.288H491.454V20.672L487.582 26.288ZM500.014 30.192C499.193 30.192 498.5 30.0373 497.934 29.728C497.369 29.4187 496.91 29.008 496.558 28.496C496.217 27.984 495.972 27.408 495.822 26.768C495.673 26.128 495.598 25.472 495.598 24.8C495.598 23.5627 495.769 22.48 496.11 21.552C496.462 20.624 496.964 19.904 497.614 19.392C498.265 18.8693 499.054 18.608 499.982 18.608C500.718 18.608 501.348 18.752 501.87 19.04C502.393 19.328 502.798 19.712 503.086 20.192C503.385 20.672 503.566 21.1947 503.63 21.76H502.046C501.95 21.2053 501.721 20.7787 501.358 20.48C500.996 20.1813 500.532 20.032 499.966 20.032C499.188 20.032 498.542 20.4 498.03 21.136C497.529 21.8613 497.262 22.9813 497.23 24.496C497.486 24.0267 497.881 23.6267 498.414 23.296C498.958 22.9653 499.582 22.8 500.286 22.8C500.916 22.8 501.502 22.9493 502.046 23.248C502.601 23.5467 503.049 23.968 503.39 24.512C503.742 25.0453 503.918 25.68 503.918 26.416C503.918 27.0667 503.758 27.68 503.438 28.256C503.118 28.832 502.665 29.3013 502.078 29.664C501.502 30.016 500.814 30.192 500.014 30.192ZM499.918 28.72C500.366 28.72 500.766 28.624 501.118 28.432C501.47 28.24 501.748 27.9787 501.95 27.648C502.153 27.3067 502.254 26.9227 502.254 26.496C502.254 25.8133 502.03 25.2693 501.582 24.864C501.145 24.4587 500.585 24.256 499.902 24.256C499.454 24.256 499.049 24.3573 498.686 24.56C498.334 24.7627 498.057 25.0347 497.854 25.376C497.652 25.7067 497.55 26.0747 497.55 26.48C497.55 26.9173 497.652 27.3067 497.854 27.648C498.068 27.9787 498.35 28.24 498.702 28.432C499.065 28.624 499.47 28.72 499.918 28.72ZM510.187 30L514.523 20.256H508.699V18.8H516.267V20.032L511.963 30H510.187ZM518.414 30L522.75 20.256H516.926V18.8H524.494V20.032L520.19 30H518.414ZM527.181 30V20.72L525.373 21.136V19.888L527.853 18.8H528.941V30H527.181ZM535.391 30L539.727 20.256H533.903V18.8H541.471V20.032L537.167 30H535.391ZM546.297 30.192C545.561 30.192 544.932 30.048 544.409 29.76C543.887 29.472 543.476 29.088 543.177 28.608C542.889 28.128 542.713 27.6053 542.649 27.04H544.233C544.329 27.5947 544.559 28.0213 544.921 28.32C545.284 28.6187 545.748 28.768 546.313 28.768C547.092 28.768 547.732 28.4053 548.233 27.68C548.745 26.944 549.017 25.8187 549.049 24.304C548.793 24.7733 548.393 25.1733 547.849 25.504C547.316 25.8347 546.697 26 545.993 26C545.364 26 544.772 25.8507 544.217 25.552C543.663 25.2533 543.215 24.8373 542.873 24.304C542.532 23.76 542.361 23.12 542.361 22.384C542.361 21.7333 542.521 21.12 542.841 20.544C543.161 19.968 543.609 19.504 544.185 19.152C544.772 18.7893 545.465 18.608 546.265 18.608C547.087 18.608 547.78 18.7627 548.345 19.072C548.911 19.3813 549.364 19.792 549.705 20.304C550.047 20.816 550.292 21.392 550.441 22.032C550.601 22.672 550.681 23.328 550.681 24C550.681 25.2373 550.505 26.32 550.153 27.248C549.812 28.176 549.316 28.9013 548.665 29.424C548.015 29.936 547.225 30.192 546.297 30.192ZM546.377 24.544C546.825 24.544 547.225 24.4427 547.577 24.24C547.929 24.0373 548.207 23.7707 548.409 23.44C548.623 23.0987 548.729 22.7253 548.729 22.32C548.729 21.8827 548.623 21.4987 548.409 21.168C548.207 20.8267 547.924 20.56 547.561 20.368C547.209 20.176 546.809 20.08 546.361 20.08C545.913 20.08 545.513 20.176 545.161 20.368C544.809 20.56 544.527 20.8267 544.313 21.168C544.111 21.4987 544.009 21.8773 544.009 22.304C544.009 22.9867 544.233 23.5307 544.681 23.936C545.129 24.3413 545.695 24.544 546.377 24.544ZM555.708 30.192C554.982 30.192 554.321 30.064 553.724 29.808C553.137 29.5413 552.668 29.1413 552.316 28.608C551.964 28.0747 551.777 27.408 551.756 26.608H553.436C553.457 27.2053 553.66 27.712 554.044 28.128C554.438 28.5333 554.993 28.736 555.708 28.736C556.39 28.736 556.913 28.5493 557.276 28.176C557.638 27.792 557.82 27.3173 557.82 26.752C557.82 26.0693 557.574 25.5627 557.084 25.232C556.604 24.9013 556.012 24.736 555.308 24.736H554.476V23.328H555.324C555.953 23.328 556.46 23.1787 556.844 22.88C557.238 22.5813 557.436 22.16 557.436 21.616C557.436 21.1573 557.281 20.784 556.972 20.496C556.673 20.208 556.246 20.064 555.692 20.064C555.116 20.064 554.662 20.2347 554.332 20.576C554.001 20.9067 553.82 21.3227 553.788 21.824H552.108C552.129 21.1733 552.289 20.608 552.588 20.128C552.897 19.648 553.318 19.2747 553.852 19.008C554.385 18.7413 554.998 18.608 555.692 18.608C556.438 18.608 557.062 18.7413 557.564 19.008C558.076 19.264 558.46 19.616 558.716 20.064C558.982 20.5013 559.116 20.9813 559.116 21.504C559.116 22.1013 558.95 22.624 558.62 23.072C558.289 23.52 557.846 23.8187 557.292 23.968C557.932 24.1067 558.46 24.4213 558.876 24.912C559.292 25.392 559.5 26.016 559.5 26.784C559.5 27.4027 559.356 27.9733 559.068 28.496C558.78 29.008 558.353 29.4187 557.788 29.728C557.222 30.0373 556.529 30.192 555.708 30.192ZM568.568 30.192C567.842 30.192 567.181 30.064 566.584 29.808C565.997 29.5413 565.528 29.1413 565.176 28.608C564.824 28.0747 564.637 27.408 564.616 26.608H566.296C566.317 27.2053 566.52 27.712 566.904 28.128C567.298 28.5333 567.853 28.736 568.568 28.736C569.25 28.736 569.773 28.5493 570.136 28.176C570.498 27.792 570.68 27.3173 570.68 26.752C570.68 26.0693 570.434 25.5627 569.944 25.232C569.464 24.9013 568.872 24.736 568.168 24.736H567.336V23.328H568.184C568.813 23.328 569.32 23.1787 569.704 22.88C570.098 22.5813 570.296 22.16 570.296 21.616C570.296 21.1573 570.141 20.784 569.832 20.496C569.533 20.208 569.106 20.064 568.552 20.064C567.976 20.064 567.522 20.2347 567.192 20.576C566.861 20.9067 566.68 21.3227 566.648 21.824H564.968C564.989 21.1733 565.149 20.608 565.448 20.128C565.757 19.648 566.178 19.2747 566.712 19.008C567.245 18.7413 567.858 18.608 568.552 18.608C569.298 18.608 569.922 18.7413 570.424 19.008C570.936 19.264 571.32 19.616 571.576 20.064C571.842 20.5013 571.976 20.9813 571.976 21.504C571.976 22.1013 571.81 22.624 571.48 23.072C571.149 23.52 570.706 23.8187 570.152 23.968C570.792 24.1067 571.32 24.4213 571.736 24.912C572.152 25.392 572.36 26.016 572.36 26.784C572.36 27.4027 572.216 27.9733 571.928 28.496C571.64 29.008 571.213 29.4187 570.648 29.728C570.082 30.0373 569.389 30.192 568.568 30.192ZM577.716 30.192C576.991 30.192 576.33 30.064 575.732 29.808C575.146 29.5413 574.676 29.1413 574.324 28.608C573.972 28.0747 573.786 27.408 573.764 26.608H575.444C575.466 27.2053 575.668 27.712 576.052 28.128C576.447 28.5333 577.002 28.736 577.716 28.736C578.399 28.736 578.922 28.5493 579.284 28.176C579.647 27.792 579.828 27.3173 579.828 26.752C579.828 26.0693 579.583 25.5627 579.092 25.232C578.612 24.9013 578.02 24.736 577.316 24.736H576.484V23.328H577.332C577.962 23.328 578.468 23.1787 578.852 22.88C579.247 22.5813 579.444 22.16 579.444 21.616C579.444 21.1573 579.29 20.784 578.98 20.496C578.682 20.208 578.255 20.064 577.7 20.064C577.124 20.064 576.671 20.2347 576.34 20.576C576.01 20.9067 575.828 21.3227 575.796 21.824H574.116C574.138 21.1733 574.298 20.608 574.596 20.128C574.906 19.648 575.327 19.2747 575.86 19.008C576.394 18.7413 577.007 18.608 577.7 18.608C578.447 18.608 579.071 18.7413 579.572 19.008C580.084 19.264 580.468 19.616 580.724 20.064C580.991 20.5013 581.124 20.9813 581.124 21.504C581.124 22.1013 580.959 22.624 580.628 23.072C580.298 23.52 579.855 23.8187 579.3 23.968C579.94 24.1067 580.468 24.4213 580.884 24.912C581.3 25.392 581.508 26.016 581.508 26.784C581.508 27.4027 581.364 27.9733 581.076 28.496C580.788 29.008 580.362 29.4187 579.796 29.728C579.231 30.0373 578.538 30.192 577.716 30.192ZM587.393 30.192C586.572 30.192 585.878 30.0373 585.313 29.728C584.748 29.4187 584.289 29.008 583.937 28.496C583.596 27.984 583.35 27.408 583.201 26.768C583.052 26.128 582.977 25.472 582.977 24.8C582.977 23.5627 583.148 22.48 583.489 21.552C583.841 20.624 584.342 19.904 584.993 19.392C585.644 18.8693 586.433 18.608 587.361 18.608C588.097 18.608 588.726 18.752 589.249 19.04C589.772 19.328 590.177 19.712 590.465 20.192C590.764 20.672 590.945 21.1947 591.009 21.76H589.425C589.329 21.2053 589.1 20.7787 588.737 20.48C588.374 20.1813 587.91 20.032 587.345 20.032C586.566 20.032 585.921 20.4 585.409 21.136C584.908 21.8613 584.641 22.9813 584.609 24.496C584.865 24.0267 585.26 23.6267 585.793 23.296C586.337 22.9653 586.961 22.8 587.665 22.8C588.294 22.8 588.881 22.9493 589.425 23.248C589.98 23.5467 590.428 23.968 590.769 24.512C591.121 25.0453 591.297 25.68 591.297 26.416C591.297 27.0667 591.137 27.68 590.817 28.256C590.497 28.832 590.044 29.3013 589.457 29.664C588.881 30.016 588.193 30.192 587.393 30.192ZM587.297 28.72C587.745 28.72 588.145 28.624 588.497 28.432C588.849 28.24 589.126 27.9787 589.329 27.648C589.532 27.3067 589.633 26.9227 589.633 26.496C589.633 25.8133 589.409 25.2693 588.961 24.864C588.524 24.4587 587.964 24.256 587.281 24.256C586.833 24.256 586.428 24.3573 586.065 24.56C585.713 24.7627 585.436 25.0347 585.233 25.376C585.03 25.7067 584.929 26.0747 584.929 26.48C584.929 26.9173 585.03 27.3067 585.233 27.648C585.446 27.9787 585.729 28.24 586.081 28.432C586.444 28.624 586.849 28.72 587.297 28.72Z" fill="#242424"/>
<path d="M475 54V44H483V54H475ZM482.68 54V44H490.68V54H482.68ZM490.36 54V44H498.36V54H490.36ZM498.04 54V44H506.04V54H498.04ZM505.72 54V44H513.72V54H505.72ZM513.4 54V44H521.4V54H513.4ZM521.08 54V44H529.08V54H521.08ZM528.76 54V44H536.76V54H528.76ZM536.44 54V44H544.44V54H536.44ZM544.12 54V44H552.12V54H544.12ZM551.8 54V44H559.8V54H551.8ZM559.48 54V44H567.48V54H559.48Z" fill="#EFEFEF"/>
</g>
<path d="M677.56 86.18H672.73V89.344H677.322V90.464H672.73V95H671.4V85.06H677.56V86.18ZM680.207 89.596C680.375 89.078 680.655 88.658 681.019 88.322C681.383 88 681.831 87.832 682.335 87.832C682.447 87.832 682.531 87.846 682.587 87.846V89.008H682.531C681.859 89.008 681.355 89.19 680.991 89.554C680.781 89.764 680.627 90.016 680.515 90.324C680.403 90.632 680.333 90.898 680.319 91.122C680.291 91.346 680.291 91.64 680.291 92.004V95H679.101V88H680.207V89.596ZM689.246 91.01V91.85H684.276C684.276 92.536 684.472 93.082 684.85 93.502C685.228 93.922 685.732 94.118 686.362 94.118C687.286 94.118 687.902 93.684 688.224 92.788L689.204 93.222C688.7 94.524 687.734 95.168 686.278 95.168C685.27 95.168 684.486 94.86 683.926 94.244C683.366 93.628 683.086 92.732 683.086 91.584C683.086 90.408 683.366 89.498 683.926 88.826C684.486 88.168 685.256 87.832 686.264 87.832C687.216 87.832 687.944 88.112 688.462 88.644C688.98 89.19 689.246 89.974 689.246 91.01ZM688.042 90.884V90.73C688.042 90.1 687.874 89.61 687.566 89.274C687.258 88.938 686.81 88.77 686.236 88.77C685.62 88.77 685.144 88.966 684.808 89.33C684.472 89.708 684.29 90.226 684.276 90.884H688.042ZM690.928 95V88H692.048V89.386C692.496 88.336 693.28 87.804 694.386 87.804C695.94 87.804 696.724 88.756 696.724 90.646V95H695.534V90.716C695.534 89.484 695.016 88.854 693.994 88.854C693.406 88.854 692.958 89.078 692.622 89.526C692.286 89.974 692.118 90.576 692.118 91.346V95H690.928ZM701.345 95.168C700.365 95.168 699.581 94.846 698.993 94.174C698.405 93.516 698.125 92.62 698.125 91.5C698.125 90.366 698.405 89.47 698.979 88.812C699.553 88.168 700.337 87.832 701.345 87.832C702.157 87.832 702.829 88.056 703.333 88.504C703.837 88.952 704.131 89.582 704.229 90.38L703.011 90.52C702.941 89.988 702.759 89.582 702.465 89.302C702.171 89.022 701.793 88.868 701.317 88.868C700.701 88.868 700.225 89.106 699.889 89.568C699.553 90.03 699.385 90.674 699.385 91.486C699.385 92.326 699.553 92.984 699.903 93.446C700.239 93.908 700.729 94.132 701.359 94.132C702.311 94.132 702.885 93.586 703.081 92.466L704.215 92.648C704.075 93.46 703.767 94.076 703.263 94.51C702.759 94.958 702.129 95.168 701.345 95.168ZM705.914 95V84.85H707.104V89.316C707.524 88.308 708.294 87.804 709.4 87.804C710.156 87.804 710.73 88.056 711.122 88.532C711.514 89.008 711.71 89.722 711.71 90.646V95H710.52V90.73C710.52 89.484 710.002 88.854 708.994 88.854C708.392 88.854 707.93 89.078 707.594 89.512C707.258 89.946 707.104 90.562 707.104 91.346V95H705.914ZM723.593 95L722.571 92.13H718.511L717.489 95H716.117L719.883 85.06H721.199L724.965 95H723.593ZM718.903 91.01H722.179L720.793 87.132C720.681 86.852 720.611 86.6 720.555 86.376H720.527C720.471 86.6 720.387 86.852 720.289 87.132L718.903 91.01ZM727.483 84.85V95H726.293V84.85H727.483ZM729.799 97.73V88H730.919V89.302C731.367 88.322 732.137 87.832 733.201 87.832C734.041 87.832 734.727 88.168 735.245 88.84C735.763 89.512 736.029 90.408 736.029 91.5C736.029 92.62 735.749 93.502 735.217 94.174C734.685 94.846 733.985 95.168 733.131 95.168C732.613 95.168 732.165 95.056 731.801 94.804C731.423 94.566 731.157 94.258 730.989 93.894V97.73H729.799ZM732.851 94.118C733.439 94.118 733.915 93.894 734.251 93.432C734.587 92.97 734.769 92.326 734.769 91.5C734.769 90.688 734.601 90.044 734.265 89.582C733.929 89.12 733.481 88.882 732.893 88.882C732.305 88.882 731.829 89.106 731.479 89.54C731.129 89.974 730.961 90.562 730.961 91.318V91.654C730.961 92.41 731.129 93.012 731.465 93.46C731.801 93.908 732.263 94.118 732.851 94.118ZM737.71 95V84.85H738.9V89.316C739.32 88.308 740.09 87.804 741.196 87.804C741.952 87.804 742.526 88.056 742.918 88.532C743.31 89.008 743.506 89.722 743.506 90.646V95H742.316V90.73C742.316 89.484 741.798 88.854 740.79 88.854C740.188 88.854 739.726 89.078 739.39 89.512C739.054 89.946 738.9 90.562 738.9 91.346V95H737.71ZM747.271 95.168C746.543 95.168 745.969 94.986 745.549 94.608C745.115 94.244 744.905 93.74 744.905 93.11C744.905 92.382 745.227 91.822 745.885 91.458C746.389 91.206 747.173 91.024 748.237 90.884L749.539 90.73V90.618C749.539 89.974 749.413 89.512 749.175 89.232C748.923 88.952 748.531 88.812 747.999 88.812C747.523 88.812 747.145 88.938 746.865 89.176C746.585 89.428 746.431 89.764 746.403 90.198H745.129C745.171 89.484 745.451 88.91 745.969 88.476C746.487 88.056 747.159 87.832 747.985 87.832C748.937 87.832 749.637 88.07 750.085 88.532C750.519 88.994 750.743 89.736 750.743 90.744V92.634C750.743 93.698 750.813 94.496 750.981 95H749.735C749.679 94.608 749.637 94.188 749.623 93.726C749.455 94.174 749.175 94.538 748.755 94.79C748.335 95.042 747.831 95.168 747.271 95.168ZM747.537 94.188C748.139 94.188 748.629 93.992 748.993 93.586C749.357 93.18 749.553 92.634 749.553 91.948V91.598L747.649 91.878C747.131 91.962 746.753 92.088 746.515 92.284C746.277 92.48 746.165 92.746 746.165 93.082C746.165 93.432 746.277 93.698 746.529 93.894C746.767 94.09 747.103 94.188 747.537 94.188ZM751.616 88.98V88H752.918V86.166L754.108 85.662V88H755.858V88.98H754.108V92.858C754.108 93.264 754.178 93.558 754.346 93.74C754.514 93.922 754.766 94.006 755.13 94.006C755.326 94.006 755.578 93.978 755.858 93.908V95C755.55 95.084 755.2 95.126 754.822 95.126C754.108 95.126 753.618 94.944 753.338 94.552C753.058 94.174 752.918 93.628 752.918 92.9V88.98H751.616ZM758.989 95.168C758.261 95.168 757.687 94.986 757.267 94.608C756.833 94.244 756.623 93.74 756.623 93.11C756.623 92.382 756.945 91.822 757.603 91.458C758.107 91.206 758.891 91.024 759.955 90.884L761.257 90.73V90.618C761.257 89.974 761.131 89.512 760.893 89.232C760.641 88.952 760.249 88.812 759.717 88.812C759.241 88.812 758.863 88.938 758.583 89.176C758.303 89.428 758.149 89.764 758.121 90.198H756.847C756.889 89.484 757.169 88.91 757.687 88.476C758.205 88.056 758.877 87.832 759.703 87.832C760.655 87.832 761.355 88.07 761.803 88.532C762.237 88.994 762.461 89.736 762.461 90.744V92.634C762.461 93.698 762.531 94.496 762.699 95H761.453C761.397 94.608 761.355 94.188 761.341 93.726C761.173 94.174 760.893 94.538 760.473 94.79C760.053 95.042 759.549 95.168 758.989 95.168ZM759.255 94.188C759.857 94.188 760.347 93.992 760.711 93.586C761.075 93.18 761.271 92.634 761.271 91.948V91.598L759.367 91.878C758.849 91.962 758.471 92.088 758.233 92.284C757.995 92.48 757.883 92.746 757.883 93.082C757.883 93.432 757.995 93.698 758.247 93.894C758.485 94.09 758.821 94.188 759.255 94.188ZM769.759 87.888C769.227 87.888 768.877 88.112 768.709 88.546C769.129 88.98 769.353 89.526 769.353 90.198C769.353 90.898 769.115 91.472 768.653 91.92C768.177 92.368 767.547 92.592 766.763 92.592C766.273 92.592 765.825 92.494 765.419 92.298C765.083 92.438 764.915 92.676 764.915 92.984C764.915 93.46 765.293 93.698 766.077 93.698H767.785C768.569 93.698 769.157 93.88 769.563 94.216C769.955 94.552 770.165 95.042 770.165 95.672C770.165 96.372 769.871 96.918 769.311 97.31C768.737 97.702 767.869 97.898 766.693 97.898C764.593 97.898 763.543 97.268 763.543 95.98C763.543 95.644 763.641 95.35 763.837 95.098C764.033 94.846 764.313 94.65 764.677 94.524C764.131 94.286 763.865 93.88 763.865 93.306C763.865 92.634 764.187 92.158 764.859 91.906C764.397 91.472 764.173 90.898 764.173 90.198C764.173 89.512 764.397 88.952 764.873 88.504C765.335 88.056 765.965 87.832 766.763 87.832C767.253 87.832 767.715 87.93 768.135 88.126C768.387 87.286 768.933 86.852 769.801 86.852C769.969 86.852 770.123 86.88 770.263 86.908V87.944C770.067 87.916 769.899 87.888 769.759 87.888ZM766.763 91.682C767.197 91.682 767.547 91.556 767.827 91.276C768.093 90.996 768.233 90.646 768.233 90.212C768.233 89.792 768.093 89.442 767.827 89.162C767.547 88.882 767.197 88.742 766.763 88.742C766.315 88.742 765.951 88.882 765.685 89.148C765.419 89.428 765.293 89.778 765.293 90.198C765.293 90.632 765.419 90.982 765.699 91.262C765.965 91.542 766.315 91.682 766.763 91.682ZM767.519 94.748H766.035C765.881 94.748 765.685 94.748 765.447 94.72C764.943 94.944 764.705 95.294 764.705 95.77C764.705 96.54 765.405 96.918 766.833 96.918C768.261 96.918 768.975 96.54 768.975 95.756C768.975 95.084 768.485 94.748 767.519 94.748Z" fill="black"/>
<g filter="url(#filter3_ddd_303_2569)">
<rect x="625" y="5" width="190" height="64" rx="8" fill="white"/>
<path d="M641 26.3333H651.667V47.6666H641" fill="#000091"/>
<path d="M651.667 26.3333H662.333V47.6666H651.667" fill="white"/>
<path d="M662.333 26.3333H673V47.6666H662.333" fill="#E1000F"/>
<path d="M695.128 30.192C694.019 30.192 693.059 29.952 692.248 29.472C691.448 28.9813 690.829 28.304 690.392 27.44C689.955 26.5653 689.736 25.5573 689.736 24.416C689.736 23.264 689.955 22.256 690.392 21.392C690.829 20.5173 691.448 19.8347 692.248 19.344C693.059 18.8533 694.019 18.608 695.128 18.608C696.44 18.608 697.512 18.928 698.344 19.568C699.176 20.208 699.704 21.104 699.928 22.256H698.04C697.891 21.6053 697.571 21.088 697.08 20.704C696.589 20.32 695.933 20.128 695.112 20.128C693.992 20.128 693.107 20.512 692.456 21.28C691.805 22.0373 691.48 23.0827 691.48 24.416C691.48 25.7387 691.805 26.7787 692.456 27.536C693.107 28.2933 693.992 28.672 695.112 28.672C695.933 28.672 696.589 28.4907 697.08 28.128C697.571 27.7653 697.891 27.2693 698.04 26.64H699.928C699.704 27.7493 699.176 28.6187 698.344 29.248C697.512 29.8773 696.44 30.192 695.128 30.192ZM701.408 30V22.064H702.928L703.072 23.568C703.35 23.0453 703.734 22.6347 704.224 22.336C704.726 22.0267 705.328 21.872 706.032 21.872V23.648H705.568C705.099 23.648 704.678 23.728 704.304 23.888C703.942 24.0373 703.648 24.2987 703.424 24.672C703.211 25.0347 703.104 25.5413 703.104 26.192V30H701.408ZM710.66 30.192C709.881 30.192 709.188 30.0213 708.58 29.68C707.982 29.328 707.513 28.8427 707.172 28.224C706.83 27.6053 706.66 26.8853 706.66 26.064C706.66 25.232 706.825 24.5013 707.156 23.872C707.497 23.2427 707.966 22.752 708.564 22.4C709.172 22.048 709.876 21.872 710.676 21.872C711.454 21.872 712.132 22.048 712.708 22.4C713.284 22.7413 713.732 23.2 714.052 23.776C714.372 24.352 714.532 24.9867 714.532 25.68C714.532 25.7867 714.526 25.904 714.516 26.032C714.516 26.1493 714.51 26.2827 714.5 26.432H708.324C708.377 27.2 708.628 27.7867 709.076 28.192C709.534 28.5867 710.062 28.784 710.66 28.784C711.14 28.784 711.54 28.6773 711.86 28.464C712.19 28.24 712.436 27.9413 712.596 27.568H714.292C714.078 28.3147 713.652 28.9387 713.012 29.44C712.382 29.9413 711.598 30.192 710.66 30.192ZM710.66 23.264C710.094 23.264 709.593 23.4347 709.156 23.776C708.718 24.1067 708.452 24.608 708.356 25.28H712.836C712.804 24.6613 712.585 24.1707 712.18 23.808C711.774 23.4453 711.268 23.264 710.66 23.264ZM710.196 21.408V20.192L713.684 18.208V19.616L710.196 21.408ZM719.587 30.192C718.819 30.192 718.142 30.0107 717.555 29.648C716.969 29.2853 716.51 28.7893 716.179 28.16C715.849 27.5307 715.683 26.816 715.683 26.016C715.683 25.216 715.849 24.5067 716.179 23.888C716.51 23.2587 716.969 22.768 717.555 22.416C718.153 22.0533 718.835 21.872 719.603 21.872C720.233 21.872 720.782 21.9947 721.251 22.24C721.731 22.4853 722.105 22.832 722.371 23.28V18.48H724.067V30H722.547L722.371 28.768C722.115 29.1413 721.763 29.472 721.315 29.76C720.867 30.048 720.291 30.192 719.587 30.192ZM719.891 28.72C720.617 28.72 721.209 28.4693 721.667 27.968C722.137 27.4667 722.371 26.8213 722.371 26.032C722.371 25.232 722.137 24.5867 721.667 24.096C721.209 23.5947 720.617 23.344 719.891 23.344C719.166 23.344 718.569 23.5947 718.099 24.096C717.63 24.5867 717.395 25.232 717.395 26.032C717.395 26.5547 717.502 27.0187 717.715 27.424C717.929 27.8293 718.222 28.1493 718.595 28.384C718.979 28.608 719.411 28.72 719.891 28.72ZM726.846 20.56C726.526 20.56 726.259 20.464 726.046 20.272C725.843 20.0693 725.742 19.8187 725.742 19.52C725.742 19.2213 725.843 18.976 726.046 18.784C726.259 18.5813 726.526 18.48 726.846 18.48C727.166 18.48 727.427 18.5813 727.63 18.784C727.843 18.976 727.95 19.2213 727.95 19.52C727.95 19.8187 727.843 20.0693 727.63 20.272C727.427 20.464 727.166 20.56 726.846 20.56ZM725.998 30V22.064H727.694V30H725.998ZM732.941 30C732.162 30 731.543 29.8133 731.085 29.44C730.626 29.056 730.397 28.3787 730.397 27.408V23.488H729.037V22.064H730.397L730.605 20.048H732.093V22.064H734.333V23.488H732.093V27.408C732.093 27.8453 732.183 28.1493 732.365 28.32C732.557 28.48 732.882 28.56 733.341 28.56H734.253V30H732.941ZM738.817 30L742.945 18.8H744.801L748.897 30H747.105L746.145 27.264H741.569L740.609 30H738.817ZM742.049 25.92H745.665L743.857 20.816L742.049 25.92ZM753.322 27.568C752.906 27.568 752.522 27.52 752.17 27.424L751.482 28.096C751.6 28.1707 751.744 28.2347 751.914 28.288C752.085 28.3413 752.325 28.3893 752.634 28.432C752.944 28.4747 753.365 28.5173 753.898 28.56C754.954 28.656 755.717 28.912 756.186 29.328C756.656 29.7333 756.89 30.2773 756.89 30.96C756.89 31.4293 756.762 31.872 756.506 32.288C756.261 32.7147 755.872 33.056 755.338 33.312C754.816 33.5787 754.144 33.712 753.322 33.712C752.213 33.712 751.312 33.4987 750.618 33.072C749.936 32.656 749.594 32.0213 749.594 31.168C749.594 30.8373 749.68 30.5067 749.85 30.176C750.032 29.856 750.314 29.552 750.698 29.264C750.474 29.168 750.277 29.0667 750.106 28.96C749.946 28.8427 749.802 28.7253 749.674 28.608V28.224L751.05 26.816C750.432 26.2827 750.122 25.584 750.122 24.72C750.122 24.1973 750.245 23.7227 750.49 23.296C750.746 22.8587 751.114 22.512 751.594 22.256C752.074 22 752.65 21.872 753.322 21.872C753.77 21.872 754.186 21.936 754.57 22.064H757.53V23.184L756.122 23.264C756.378 23.7013 756.506 24.1867 756.506 24.72C756.506 25.2533 756.378 25.7333 756.122 26.16C755.877 26.5867 755.514 26.928 755.034 27.184C754.565 27.44 753.994 27.568 753.322 27.568ZM753.322 26.24C753.813 26.24 754.208 26.112 754.506 25.856C754.816 25.5893 754.97 25.216 754.97 24.736C754.97 24.2453 754.816 23.872 754.506 23.616C754.208 23.36 753.813 23.232 753.322 23.232C752.821 23.232 752.416 23.36 752.106 23.616C751.808 23.872 751.658 24.2453 751.658 24.736C751.658 25.216 751.808 25.5893 752.106 25.856C752.416 26.112 752.821 26.24 753.322 26.24ZM751.194 31.008C751.194 31.4667 751.397 31.808 751.802 32.032C752.208 32.2667 752.714 32.384 753.322 32.384C753.909 32.384 754.384 32.256 754.746 32C755.109 31.7547 755.29 31.424 755.29 31.008C755.29 30.6987 755.168 30.432 754.922 30.208C754.677 29.9947 754.213 29.8613 753.53 29.808C753.018 29.776 752.565 29.728 752.17 29.664C751.797 29.8667 751.541 30.0853 751.402 30.32C751.264 30.5547 751.194 30.784 751.194 31.008ZM758.723 30V22.064H760.243L760.387 23.568C760.665 23.0453 761.049 22.6347 761.539 22.336C762.041 22.0267 762.643 21.872 763.347 21.872V23.648H762.883C762.414 23.648 761.993 23.728 761.619 23.888C761.257 24.0373 760.963 24.2987 760.739 24.672C760.526 25.0347 760.419 25.5413 760.419 26.192V30H758.723ZM765.441 20.56C765.121 20.56 764.855 20.464 764.641 20.272C764.439 20.0693 764.337 19.8187 764.337 19.52C764.337 19.2213 764.439 18.976 764.641 18.784C764.855 18.5813 765.121 18.48 765.441 18.48C765.761 18.48 766.023 18.5813 766.225 18.784C766.439 18.976 766.545 19.2213 766.545 19.52C766.545 19.8187 766.439 20.0693 766.225 20.272C766.023 20.464 765.761 20.56 765.441 20.56ZM764.593 30V22.064H766.289V30H764.593ZM771.968 30.192C771.19 30.192 770.491 30.016 769.872 29.664C769.264 29.312 768.784 28.8267 768.432 28.208C768.091 27.5787 767.92 26.8533 767.92 26.032C767.92 25.2107 768.091 24.4907 768.432 23.872C768.784 23.2427 769.264 22.752 769.872 22.4C770.491 22.048 771.19 21.872 771.968 21.872C772.95 21.872 773.771 22.128 774.432 22.64C775.104 23.152 775.536 23.8453 775.728 24.72H773.952C773.846 24.2827 773.611 23.9413 773.248 23.696C772.886 23.4507 772.459 23.328 771.968 23.328C771.552 23.328 771.168 23.4347 770.816 23.648C770.464 23.8507 770.182 24.1547 769.968 24.56C769.755 24.9547 769.648 25.4453 769.648 26.032C769.648 26.6187 769.755 27.1147 769.968 27.52C770.182 27.9147 770.464 28.2187 770.816 28.432C771.168 28.6453 771.552 28.752 771.968 28.752C772.459 28.752 772.886 28.6293 773.248 28.384C773.611 28.1387 773.846 27.792 773.952 27.344H775.728C775.547 28.1973 775.12 28.8853 774.448 29.408C773.776 29.9307 772.95 30.192 771.968 30.192ZM780.96 30.192C780.202 30.192 779.52 30.0213 778.912 29.68C778.314 29.328 777.84 28.8427 777.488 28.224C777.136 27.5947 776.96 26.864 776.96 26.032C776.96 25.2 777.136 24.4747 777.488 23.856C777.85 23.2267 778.336 22.7413 778.944 22.4C779.552 22.048 780.229 21.872 780.976 21.872C781.733 21.872 782.41 22.048 783.008 22.4C783.616 22.7413 784.096 23.2267 784.448 23.856C784.81 24.4747 784.992 25.2 784.992 26.032C784.992 26.864 784.81 27.5947 784.448 28.224C784.096 28.8427 783.616 29.328 783.008 29.68C782.4 30.0213 781.717 30.192 780.96 30.192ZM780.96 28.736C781.365 28.736 781.738 28.6347 782.08 28.432C782.432 28.2293 782.714 27.9307 782.928 27.536C783.141 27.1307 783.248 26.6293 783.248 26.032C783.248 25.4347 783.141 24.9387 782.928 24.544C782.725 24.1387 782.448 23.8347 782.096 23.632C781.754 23.4293 781.381 23.328 780.976 23.328C780.57 23.328 780.192 23.4293 779.84 23.632C779.498 23.8347 779.221 24.1387 779.008 24.544C778.794 24.9387 778.688 25.4347 778.688 26.032C778.688 26.6293 778.794 27.1307 779.008 27.536C779.221 27.9307 779.498 28.2293 779.84 28.432C780.181 28.6347 780.554 28.736 780.96 28.736ZM786.506 30V18.48H788.202V30H786.506ZM793.741 30.192C792.963 30.192 792.269 30.0213 791.661 29.68C791.064 29.328 790.595 28.8427 790.253 28.224C789.912 27.6053 789.741 26.8853 789.741 26.064C789.741 25.232 789.907 24.5013 790.237 23.872C790.579 23.2427 791.048 22.752 791.645 22.4C792.253 22.048 792.957 21.872 793.757 21.872C794.536 21.872 795.213 22.048 795.789 22.4C796.365 22.7413 796.813 23.2 797.133 23.776C797.453 24.352 797.613 24.9867 797.613 25.68C797.613 25.7867 797.608 25.904 797.597 26.032C797.597 26.1493 797.592 26.2827 797.581 26.432H791.405C791.459 27.2 791.709 27.7867 792.157 28.192C792.616 28.5867 793.144 28.784 793.741 28.784C794.221 28.784 794.621 28.6773 794.941 28.464C795.272 28.24 795.517 27.9413 795.677 27.568H797.373C797.16 28.3147 796.733 28.9387 796.093 29.44C795.464 29.9413 794.68 30.192 793.741 30.192ZM793.741 23.264C793.176 23.264 792.675 23.4347 792.237 23.776C791.8 24.1067 791.533 24.608 791.437 25.28H795.917C795.885 24.6613 795.667 24.1707 795.261 23.808C794.856 23.4453 794.349 23.264 793.741 23.264Z" fill="#242424"/>
<path d="M688 54V44H696V54H688ZM695.68 54V44H703.68V54H695.68ZM703.36 54V44H711.36V54H703.36ZM711.04 54V44H719.04V54H711.04ZM718.72 54V44H726.72V54H718.72ZM726.4 54V44H734.4V54H726.4ZM734.08 54V44H742.08V54H734.08ZM741.76 54V44H749.76V54H741.76ZM749.44 54V44H757.44V54H749.44ZM757.12 54V44H765.12V54H757.12ZM764.8 54V44H772.8V54H764.8ZM772.48 54V44H780.48V54H772.48Z" fill="#EFEFEF"/>
</g>
<defs>
<filter id="filter0_ddd_303_2569" x="0" y="0" width="215" height="125" filterUnits="userSpaceOnUse" color-interpolation-filters="sRGB">
<feFlood flood-opacity="0" result="BackgroundImageFix"/>
<feColorMatrix in="SourceAlpha" type="matrix" values="0 0 0 0 0 0 0 0 0 0 0 0 0 0 0 0 0 0 127 0" result="hardAlpha"/>
<feOffset dy="4"/>
<feGaussianBlur stdDeviation="4.5"/>
<feColorMatrix type="matrix" values="0 0 0 0 0.174029 0 0 0 0 0.026599 0 0 0 0 0.243408 0 0 0 0.03 0"/>
<feBlend mode="normal" in2="BackgroundImageFix" result="effect1_dropShadow_303_2569"/>
<feColorMatrix in="SourceAlpha" type="matrix" values="0 0 0 0 0 0 0 0 0 0 0 0 0 0 0 0 0 0 127 0" result="hardAlpha"/>
<feOffset dy="16"/>
<feGaussianBlur stdDeviation="8"/>
<feColorMatrix type="matrix" values="0 0 0 0 0.165102 0 0 0 0 0.0337805 0 0 0 0 0.245589 0 0 0 0.03 0"/>
<feBlend mode="normal" in2="effect1_dropShadow_303_2569" result="effect2_dropShadow_303_2569"/>
<feColorMatrix in="SourceAlpha" type="matrix" values="0 0 0 0 0 0 0 0 0 0 0 0 0 0 0 0 0 0 127 0" result="hardAlpha"/>
<feOffset dy="35"/>
<feGaussianBlur stdDeviation="10.5"/>
<feColorMatrix type="matrix" values="0 0 0 0 0.202632 0 0 0 0 0.0399708 0 0 0 0 0.302327 0 0 0 0.02 0"/>
<feBlend mode="normal" in2="effect2_dropShadow_303_2569" result="effect3_dropShadow_303_2569"/>
<feBlend mode="normal" in="SourceGraphic" in2="effect3_dropShadow_303_2569" result="shape"/>
</filter>
<filter id="filter1_ddd_303_2569" x="189" y="0" width="228" height="125" filterUnits="userSpaceOnUse" color-interpolation-filters="sRGB">
<feFlood flood-opacity="0" result="BackgroundImageFix"/>
<feColorMatrix in="SourceAlpha" type="matrix" values="0 0 0 0 0 0 0 0 0 0 0 0 0 0 0 0 0 0 127 0" result="hardAlpha"/>
<feOffset dy="4"/>
<feGaussianBlur stdDeviation="4.5"/>
<feColorMatrix type="matrix" values="0 0 0 0 0.174029 0 0 0 0 0.026599 0 0 0 0 0.243408 0 0 0 0.03 0"/>
<feBlend mode="normal" in2="BackgroundImageFix" result="effect1_dropShadow_303_2569"/>
<feColorMatrix in="SourceAlpha" type="matrix" values="0 0 0 0 0 0 0 0 0 0 0 0 0 0 0 0 0 0 127 0" result="hardAlpha"/>
<feOffset dy="16"/>
<feGaussianBlur stdDeviation="8"/>
<feColorMatrix type="matrix" values="0 0 0 0 0.165102 0 0 0 0 0.0337805 0 0 0 0 0.245589 0 0 0 0.03 0"/>
<feBlend mode="normal" in2="effect1_dropShadow_303_2569" result="effect2_dropShadow_303_2569"/>
<feColorMatrix in="SourceAlpha" type="matrix" values="0 0 0 0 0 0 0 0 0 0 0 0 0 0 0 0 0 0 127 0" result="hardAlpha"/>
<feOffset dy="35"/>
<feGaussianBlur stdDeviation="10.5"/>
<feColorMatrix type="matrix" values="0 0 0 0 0.202632 0 0 0 0 0.0399708 0 0 0 0 0.302327 0 0 0 0.02 0"/>
<feBlend mode="normal" in2="effect2_dropShadow_303_2569" result="effect3_dropShadow_303_2569"/>
<feBlend mode="normal" in="SourceGraphic" in2="effect3_dropShadow_303_2569" result="shape"/>
</filter>
<filter id="filter2_ddd_303_2569" x="391" y="0" width="239" height="125" filterUnits="userSpaceOnUse" color-interpolation-filters="sRGB">
<feFlood flood-opacity="0" result="BackgroundImageFix"/>
<feColorMatrix in="SourceAlpha" type="matrix" values="0 0 0 0 0 0 0 0 0 0 0 0 0 0 0 0 0 0 127 0" result="hardAlpha"/>
<feOffset dy="4"/>
<feGaussianBlur stdDeviation="4.5"/>
<feColorMatrix type="matrix" values="0 0 0 0 0.174029 0 0 0 0 0.026599 0 0 0 0 0.243408 0 0 0 0.03 0"/>
<feBlend mode="normal" in2="BackgroundImageFix" result="effect1_dropShadow_303_2569"/>
<feColorMatrix in="SourceAlpha" type="matrix" values="0 0 0 0 0 0 0 0 0 0 0 0 0 0 0 0 0 0 127 0" result="hardAlpha"/>
<feOffset dy="16"/>
<feGaussianBlur stdDeviation="8"/>
<feColorMatrix type="matrix" values="0 0 0 0 0.165102 0 0 0 0 0.0337805 0 0 0 0 0.245589 0 0 0 0.03 0"/>
<feBlend mode="normal" in2="effect1_dropShadow_303_2569" result="effect2_dropShadow_303_2569"/>
<feColorMatrix in="SourceAlpha" type="matrix" values="0 0 0 0 0 0 0 0 0 0 0 0 0 0 0 0 0 0 127 0" result="hardAlpha"/>
<feOffset dy="35"/>
<feGaussianBlur stdDeviation="10.5"/>
<feColorMatrix type="matrix" values="0 0 0 0 0.202632 0 0 0 0 0.0399708 0 0 0 0 0.302327 0 0 0 0.02 0"/>
<feBlend mode="normal" in2="effect2_dropShadow_303_2569" result="effect3_dropShadow_303_2569"/>
<feBlend mode="normal" in="SourceGraphic" in2="effect3_dropShadow_303_2569" result="shape"/>
</filter>
<filter id="filter3_ddd_303_2569" x="604" y="0" width="232" height="125" filterUnits="userSpaceOnUse" color-interpolation-filters="sRGB">
<feFlood flood-opacity="0" result="BackgroundImageFix"/>
<feColorMatrix in="SourceAlpha" type="matrix" values="0 0 0 0 0 0 0 0 0 0 0 0 0 0 0 0 0 0 127 0" result="hardAlpha"/>
<feOffset dy="4"/>
<feGaussianBlur stdDeviation="4.5"/>
<feColorMatrix type="matrix" values="0 0 0 0 0.174029 0 0 0 0 0.026599 0 0 0 0 0.243408 0 0 0 0.03 0"/>
<feBlend mode="normal" in2="BackgroundImageFix" result="effect1_dropShadow_303_2569"/>
<feColorMatrix in="SourceAlpha" type="matrix" values="0 0 0 0 0 0 0 0 0 0 0 0 0 0 0 0 0 0 127 0" result="hardAlpha"/>
<feOffset dy="16"/>
<feGaussianBlur stdDeviation="8"/>
<feColorMatrix type="matrix" values="0 0 0 0 0.165102 0 0 0 0 0.0337805 0 0 0 0 0.245589 0 0 0 0.03 0"/>
<feBlend mode="normal" in2="effect1_dropShadow_303_2569" result="effect2_dropShadow_303_2569"/>
<feColorMatrix in="SourceAlpha" type="matrix" values="0 0 0 0 0 0 0 0 0 0 0 0 0 0 0 0 0 0 127 0" result="hardAlpha"/>
<feOffset dy="35"/>
<feGaussianBlur stdDeviation="10.5"/>
<feColorMatrix type="matrix" values="0 0 0 0 0.202632 0 0 0 0 0.0399708 0 0 0 0 0.302327 0 0 0 0.02 0"/>
<feBlend mode="normal" in2="effect2_dropShadow_303_2569" result="effect3_dropShadow_303_2569"/>
<feBlend mode="normal" in="SourceGraphic" in2="effect3_dropShadow_303_2569" result="shape"/>
</filter>
</defs>
</svg>
