<svg width="9597" height="656" viewBox="0 0 9597 656" fill="none" xmlns="http://www.w3.org/2000/svg">
<rect width="1605" height="656" rx="80" fill="#D0C8FA"/>
<path d="M117 413.5V238.5H176.75C197.25 238.5 214.083 242.167 227.25 249.5C240.583 256.667 250.417 266.833 256.75 280C263.25 293 266.5 308.333 266.5 326C266.5 343.667 263.25 359.083 256.75 372.25C250.417 385.25 240.583 395.417 227.25 402.75C214.083 409.917 197.25 413.5 176.75 413.5H117ZM149 386H175.25C189.917 386 201.5 383.667 210 379C218.5 374.167 224.583 367.333 228.25 358.5C231.917 349.5 233.75 338.667 233.75 326C233.75 313.5 231.917 302.75 228.25 293.75C224.583 284.75 218.5 277.833 210 273C201.5 268.167 189.917 265.75 175.25 265.75H149V386ZM348.484 416.5C336.484 416.5 325.651 413.75 315.984 408.25C306.484 402.75 298.901 395.167 293.234 385.5C287.734 375.667 284.984 364.333 284.984 351.5C284.984 338.667 287.818 327.417 293.484 317.75C299.151 307.917 306.734 300.25 316.234 294.75C325.901 289.25 336.734 286.5 348.734 286.5C360.568 286.5 371.234 289.25 380.734 294.75C390.401 300.25 397.984 307.917 403.484 317.75C409.151 327.417 411.984 338.667 411.984 351.5C411.984 364.333 409.151 375.667 403.484 385.5C397.984 395.167 390.401 402.75 380.734 408.25C371.068 413.75 360.318 416.5 348.484 416.5ZM348.484 388.75C356.818 388.75 364.068 385.667 370.234 379.5C376.401 373.167 379.484 363.833 379.484 351.5C379.484 339.167 376.401 329.917 370.234 323.75C364.068 317.417 356.901 314.25 348.734 314.25C340.234 314.25 332.901 317.417 326.734 323.75C320.734 329.917 317.734 339.167 317.734 351.5C317.734 363.833 320.734 373.167 326.734 379.5C332.901 385.667 340.151 388.75 348.484 388.75ZM496.346 416.5C483.679 416.5 472.512 413.75 462.846 408.25C453.179 402.75 445.512 395.083 439.846 385.25C434.346 375.417 431.596 364.167 431.596 351.5C431.596 338.833 434.346 327.583 439.846 317.75C445.512 307.917 453.179 300.25 462.846 294.75C472.512 289.25 483.679 286.5 496.346 286.5C512.179 286.5 525.512 290.667 536.346 299C547.179 307.167 554.096 318.5 557.096 333H523.346C521.679 327 518.346 322.333 513.346 319C508.512 315.5 502.762 313.75 496.096 313.75C487.262 313.75 479.762 317.083 473.596 323.75C467.429 330.417 464.346 339.667 464.346 351.5C464.346 363.333 467.429 372.583 473.596 379.25C479.762 385.917 487.262 389.25 496.096 389.25C502.762 389.25 508.512 387.583 513.346 384.25C518.346 380.917 521.679 376.167 523.346 370H557.096C554.096 384 547.179 395.25 536.346 403.75C525.512 412.25 512.179 416.5 496.346 416.5ZM631.748 416.5C620.748 416.5 611.081 414.75 602.748 411.25C594.415 407.583 587.748 402.583 582.748 396.25C577.748 389.917 574.748 382.583 573.748 374.25H605.998C606.998 379.083 609.665 383.25 613.998 386.75C618.498 390.083 624.248 391.75 631.248 391.75C638.248 391.75 643.331 390.333 646.498 387.5C649.831 384.667 651.498 381.417 651.498 377.75C651.498 372.417 649.165 368.833 644.498 367C639.831 365 633.331 363.083 624.998 361.25C619.665 360.083 614.248 358.667 608.748 357C603.248 355.333 598.165 353.25 593.498 350.75C588.998 348.083 585.331 344.75 582.498 340.75C579.665 336.583 578.248 331.5 578.248 325.5C578.248 314.5 582.581 305.25 591.248 297.75C600.081 290.25 612.415 286.5 628.248 286.5C642.915 286.5 654.581 289.917 663.248 296.75C672.081 303.583 677.331 313 678.998 325H648.748C646.915 315.833 639.998 311.25 627.998 311.25C621.998 311.25 617.331 312.417 613.998 314.75C610.831 317.083 609.248 320 609.248 323.5C609.248 327.167 611.665 330.083 616.498 332.25C621.331 334.417 627.748 336.417 635.748 338.25C644.415 340.25 652.331 342.5 659.498 345C666.831 347.333 672.665 350.917 676.998 355.75C681.331 360.417 683.498 367.167 683.498 376C683.665 383.667 681.665 390.583 677.498 396.75C673.331 402.917 667.331 407.75 659.498 411.25C651.665 414.75 642.415 416.5 631.748 416.5ZM758.666 354.5V327.75H893.666V354.5H758.666ZM992.596 413.5V262L964.346 268.25V253.75L999.596 238.5H1013.85V413.5H992.596ZM1105.7 413.5V289.5H1124.7L1126.2 307.5C1130.2 300.833 1135.53 295.667 1142.2 292C1148.86 288.333 1156.36 286.5 1164.7 286.5C1174.53 286.5 1182.95 288.5 1189.95 292.5C1197.11 296.5 1202.61 302.583 1206.45 310.75C1210.78 303.25 1216.7 297.333 1224.2 293C1231.86 288.667 1240.11 286.5 1248.95 286.5C1263.78 286.5 1275.61 291 1284.45 300C1293.28 308.833 1297.7 322.5 1297.7 341V413.5H1276.95V343.25C1276.95 330.417 1274.36 320.75 1269.2 314.25C1264.03 307.75 1256.61 304.5 1246.95 304.5C1236.95 304.5 1228.61 308.417 1221.95 316.25C1215.45 323.917 1212.2 334.917 1212.2 349.25V413.5H1191.2V343.25C1191.2 330.417 1188.61 320.75 1183.45 314.25C1178.28 307.75 1170.86 304.5 1161.2 304.5C1151.36 304.5 1143.11 308.417 1136.45 316.25C1129.95 323.917 1126.7 334.917 1126.7 349.25V413.5H1105.7ZM1337.08 262C1332.91 262 1329.41 260.667 1326.58 258C1323.91 255.167 1322.58 251.667 1322.58 247.5C1322.58 243.5 1323.91 240.167 1326.58 237.5C1329.41 234.833 1332.91 233.5 1337.08 233.5C1341.08 233.5 1344.5 234.833 1347.33 237.5C1350.16 240.167 1351.58 243.5 1351.58 247.5C1351.58 251.667 1350.16 255.167 1347.33 258C1344.5 260.667 1341.08 262 1337.08 262ZM1326.58 413.5V289.5H1347.58V413.5H1326.58ZM1379.14 413.5V289.5H1398.14L1399.39 311.75C1403.39 303.917 1409.14 297.75 1416.64 293.25C1424.14 288.75 1432.64 286.5 1442.14 286.5C1456.81 286.5 1468.48 291 1477.14 300C1485.98 308.833 1490.39 322.5 1490.39 341V413.5H1469.39V343.25C1469.39 317.417 1458.73 304.5 1437.39 304.5C1426.73 304.5 1417.81 308.417 1410.64 316.25C1403.64 323.917 1400.14 334.917 1400.14 349.25V413.5H1379.14Z" fill="black"/>
<path d="M1844.63 345.208H2036.85L1952.87 429.185C1946.16 435.896 1946.16 446.91 1952.87 453.621C1959.59 460.332 1970.43 460.332 1977.14 453.621L2090.54 340.218C2097.25 333.507 2097.25 322.665 2090.54 315.954L1977.31 202.379C1970.6 195.668 1959.76 195.668 1953.05 202.379C1946.34 209.09 1946.34 219.932 1953.05 226.643L2036.85 310.792H1844.63C1835.17 310.792 1827.43 318.535 1827.43 328C1827.43 337.465 1835.17 345.208 1844.63 345.208Z" fill="black"/>
<rect x="2318" width="4440" height="656" rx="80" fill="#C2E3C9"/>
<path d="M2435 413.5V238.5H2548V264.25H2467V313.25H2532.5V338.5H2467V413.5H2435ZM2584.2 270.25C2578.36 270.25 2573.53 268.5 2569.7 265C2566.03 261.5 2564.2 257.083 2564.2 251.75C2564.2 246.417 2566.03 242.083 2569.7 238.75C2573.53 235.25 2578.36 233.5 2584.2 233.5C2590.03 233.5 2594.78 235.25 2598.45 238.75C2602.28 242.083 2604.2 246.417 2604.2 251.75C2604.2 257.083 2602.28 261.5 2598.45 265C2594.78 268.5 2590.03 270.25 2584.2 270.25ZM2568.2 413.5V289.5H2600.2V413.5H2568.2ZM2628.6 413.5V289.5H2656.85L2659.35 310.5C2663.18 303.167 2668.68 297.333 2675.85 293C2683.18 288.667 2691.76 286.5 2701.6 286.5C2716.93 286.5 2728.85 291.333 2737.35 301C2745.85 310.667 2750.1 324.833 2750.1 343.5V413.5H2718.1V346.5C2718.1 335.833 2715.93 327.667 2711.6 322C2707.26 316.333 2700.51 313.5 2691.35 313.5C2682.35 313.5 2674.93 316.667 2669.1 323C2663.43 329.333 2660.6 338.167 2660.6 349.5V413.5H2628.6ZM2832.7 416.5C2821.03 416.5 2810.61 413.667 2801.45 408C2792.28 402.333 2785.03 394.583 2779.7 384.75C2774.36 374.917 2771.7 363.75 2771.7 351.25C2771.7 338.75 2774.36 327.667 2779.7 318C2785.03 308.167 2792.28 300.5 2801.45 295C2810.61 289.333 2821.03 286.5 2832.7 286.5C2842.03 286.5 2850.2 288.25 2857.2 291.75C2864.2 295.25 2869.86 300.167 2874.2 306.5V233.5H2906.2V413.5H2877.7L2874.2 395.75C2870.2 401.25 2864.86 406.083 2858.2 410.25C2851.7 414.417 2843.2 416.5 2832.7 416.5ZM2839.45 388.5C2849.78 388.5 2858.2 385.083 2864.7 378.25C2871.36 371.25 2874.7 362.333 2874.7 351.5C2874.7 340.667 2871.36 331.833 2864.7 325C2858.2 318 2849.78 314.5 2839.45 314.5C2829.28 314.5 2820.86 317.917 2814.2 324.75C2807.53 331.583 2804.2 340.417 2804.2 351.25C2804.2 362.083 2807.53 371 2814.2 378C2820.86 385 2829.28 388.5 2839.45 388.5ZM2988.35 468.5V289.5H3016.85L3020.35 307.25C3024.35 301.75 3029.6 296.917 3036.1 292.75C3042.77 288.583 3051.35 286.5 3061.85 286.5C3073.52 286.5 3083.93 289.333 3093.1 295C3102.27 300.667 3109.52 308.417 3114.85 318.25C3120.18 328.083 3122.85 339.25 3122.85 351.75C3122.85 364.25 3120.18 375.417 3114.85 385.25C3109.52 394.917 3102.27 402.583 3093.1 408.25C3083.93 413.75 3073.52 416.5 3061.85 416.5C3052.52 416.5 3044.35 414.75 3037.35 411.25C3030.35 407.75 3024.68 402.833 3020.35 396.5V468.5H2988.35ZM3055.1 388.5C3065.27 388.5 3073.68 385.083 3080.35 378.25C3087.02 371.417 3090.35 362.583 3090.35 351.75C3090.35 340.917 3087.02 332 3080.35 325C3073.68 318 3065.27 314.5 3055.1 314.5C3044.77 314.5 3036.27 318 3029.6 325C3023.1 331.833 3019.85 340.667 3019.85 351.5C3019.85 362.333 3023.1 371.25 3029.6 378.25C3036.27 385.083 3044.77 388.5 3055.1 388.5ZM3189.19 416.5C3178.52 416.5 3169.77 414.833 3162.94 411.5C3156.1 408 3151.02 403.417 3147.69 397.75C3144.35 392.083 3142.69 385.833 3142.69 379C3142.69 367.5 3147.19 358.167 3156.19 351C3165.19 343.833 3178.69 340.25 3196.69 340.25H3228.19V337.25C3228.19 328.75 3225.77 322.5 3220.94 318.5C3216.1 314.5 3210.1 312.5 3202.94 312.5C3196.44 312.5 3190.77 314.083 3185.94 317.25C3181.1 320.25 3178.1 324.75 3176.94 330.75H3145.69C3146.52 321.75 3149.52 313.917 3154.69 307.25C3160.02 300.583 3166.85 295.5 3175.19 292C3183.52 288.333 3192.85 286.5 3203.19 286.5C3220.85 286.5 3234.77 290.917 3244.94 299.75C3255.1 308.583 3260.19 321.083 3260.19 337.25V413.5H3232.94L3229.94 393.5C3226.27 400.167 3221.1 405.667 3214.44 410C3207.94 414.333 3199.52 416.5 3189.19 416.5ZM3196.44 391.5C3205.6 391.5 3212.69 388.5 3217.69 382.5C3222.85 376.5 3226.1 369.083 3227.44 360.25H3200.19C3191.69 360.25 3185.6 361.833 3181.94 365C3178.27 368 3176.44 371.75 3176.44 376.25C3176.44 381.083 3178.27 384.833 3181.94 387.5C3185.6 390.167 3190.44 391.5 3196.44 391.5ZM3285.72 413.5V289.5H3314.22L3317.22 312.75C3321.72 304.75 3327.81 298.417 3335.47 293.75C3343.31 288.917 3352.47 286.5 3362.97 286.5V320.25H3353.97C3346.97 320.25 3340.72 321.333 3335.22 323.5C3329.72 325.667 3325.39 329.417 3322.22 334.75C3319.22 340.083 3317.72 347.5 3317.72 357V413.5H3285.72ZM3422.6 416.5C3411.93 416.5 3403.18 414.833 3396.35 411.5C3389.51 408 3384.43 403.417 3381.1 397.75C3377.76 392.083 3376.1 385.833 3376.1 379C3376.1 367.5 3380.6 358.167 3389.6 351C3398.6 343.833 3412.1 340.25 3430.1 340.25H3461.6V337.25C3461.6 328.75 3459.18 322.5 3454.35 318.5C3449.51 314.5 3443.51 312.5 3436.35 312.5C3429.85 312.5 3424.18 314.083 3419.35 317.25C3414.51 320.25 3411.51 324.75 3410.35 330.75H3379.1C3379.93 321.75 3382.93 313.917 3388.1 307.25C3393.43 300.583 3400.26 295.5 3408.6 292C3416.93 288.333 3426.26 286.5 3436.6 286.5C3454.26 286.5 3468.18 290.917 3478.35 299.75C3488.51 308.583 3493.6 321.083 3493.6 337.25V413.5H3466.35L3463.35 393.5C3459.68 400.167 3454.51 405.667 3447.85 410C3441.35 414.333 3432.93 416.5 3422.6 416.5ZM3429.85 391.5C3439.01 391.5 3446.1 388.5 3451.1 382.5C3456.26 376.5 3459.51 369.083 3460.85 360.25H3433.6C3425.1 360.25 3419.01 361.833 3415.35 365C3411.68 368 3409.85 371.75 3409.85 376.25C3409.85 381.083 3411.68 384.833 3415.35 387.5C3419.01 390.167 3423.85 391.5 3429.85 391.5ZM3519.13 413.5V289.5H3547.38L3550.13 306.25C3554.13 300.25 3559.38 295.5 3565.88 292C3572.55 288.333 3580.22 286.5 3588.88 286.5C3608.05 286.5 3621.63 293.917 3629.63 308.75C3634.13 301.917 3640.13 296.5 3647.63 292.5C3655.3 288.5 3663.63 286.5 3672.63 286.5C3688.8 286.5 3701.22 291.333 3709.88 301C3718.55 310.667 3722.88 324.833 3722.88 343.5V413.5H3690.88V346.5C3690.88 335.833 3688.8 327.667 3684.63 322C3680.63 316.333 3674.38 313.5 3665.88 313.5C3657.22 313.5 3650.22 316.667 3644.88 323C3639.72 329.333 3637.13 338.167 3637.13 349.5V413.5H3605.13V346.5C3605.13 335.833 3603.05 327.667 3598.88 322C3594.72 316.333 3588.3 313.5 3579.63 313.5C3571.13 313.5 3564.22 316.667 3558.88 323C3553.72 329.333 3551.13 338.167 3551.13 349.5V413.5H3519.13ZM3808.51 416.5C3796.01 416.5 3784.93 413.833 3775.26 408.5C3765.6 403.167 3758.01 395.667 3752.51 386C3747.01 376.333 3744.26 365.167 3744.26 352.5C3744.26 339.667 3746.93 328.25 3752.26 318.25C3757.76 308.25 3765.26 300.5 3774.76 295C3784.43 289.333 3795.76 286.5 3808.76 286.5C3820.93 286.5 3831.68 289.167 3841.01 294.5C3850.35 299.833 3857.6 307.167 3862.76 316.5C3868.1 325.667 3870.76 335.917 3870.76 347.25C3870.76 349.083 3870.68 351 3870.51 353C3870.51 355 3870.43 357.083 3870.26 359.25H3776.01C3776.68 368.917 3780.01 376.5 3786.01 382C3792.18 387.5 3799.6 390.25 3808.26 390.25C3814.76 390.25 3820.18 388.833 3824.51 386C3829.01 383 3832.35 379.167 3834.51 374.5H3867.01C3864.68 382.333 3860.76 389.5 3855.26 396C3849.93 402.333 3843.26 407.333 3835.26 411C3827.43 414.667 3818.51 416.5 3808.51 416.5ZM3808.76 312.5C3800.93 312.5 3794.01 314.75 3788.01 319.25C3782.01 323.583 3778.18 330.25 3776.51 339.25H3838.26C3837.76 331.083 3834.76 324.583 3829.26 319.75C3823.76 314.917 3816.93 312.5 3808.76 312.5ZM3945.73 413.5C3932.73 413.5 3922.31 410.333 3914.48 404C3906.65 397.667 3902.73 386.417 3902.73 370.25V316.25H3881.48V289.5H3902.73L3906.48 256.25H3934.73V289.5H3968.23V316.25H3934.73V370.5C3934.73 376.5 3935.98 380.667 3938.48 383C3941.15 385.167 3945.65 386.25 3951.98 386.25H3967.48V413.5H3945.73ZM4047.78 416.5C4035.28 416.5 4024.2 413.833 4014.53 408.5C4004.86 403.167 3997.28 395.667 3991.78 386C3986.28 376.333 3983.53 365.167 3983.53 352.5C3983.53 339.667 3986.2 328.25 3991.53 318.25C3997.03 308.25 4004.53 300.5 4014.03 295C4023.7 289.333 4035.03 286.5 4048.03 286.5C4060.2 286.5 4070.95 289.167 4080.28 294.5C4089.61 299.833 4096.86 307.167 4102.03 316.5C4107.36 325.667 4110.03 335.917 4110.03 347.25C4110.03 349.083 4109.95 351 4109.78 353C4109.78 355 4109.7 357.083 4109.53 359.25H4015.28C4015.95 368.917 4019.28 376.5 4025.28 382C4031.45 387.5 4038.86 390.25 4047.53 390.25C4054.03 390.25 4059.45 388.833 4063.78 386C4068.28 383 4071.61 379.167 4073.78 374.5H4106.28C4103.95 382.333 4100.03 389.5 4094.53 396C4089.2 402.333 4082.53 407.333 4074.53 411C4066.7 414.667 4057.78 416.5 4047.78 416.5ZM4048.03 312.5C4040.2 312.5 4033.28 314.75 4027.28 319.25C4021.28 323.583 4017.45 330.25 4015.78 339.25H4077.53C4077.03 331.083 4074.03 324.583 4068.53 319.75C4063.03 314.917 4056.2 312.5 4048.03 312.5ZM4131.95 413.5V289.5H4160.45L4163.45 312.75C4167.95 304.75 4174.03 298.417 4181.7 293.75C4189.53 288.917 4198.7 286.5 4209.2 286.5V320.25H4200.2C4193.2 320.25 4186.95 321.333 4181.45 323.5C4175.95 325.667 4171.61 329.417 4168.45 334.75C4165.45 340.083 4163.95 347.5 4163.95 357V413.5H4131.95ZM4277.32 416.5C4266.32 416.5 4256.65 414.75 4248.32 411.25C4239.98 407.583 4233.32 402.583 4228.32 396.25C4223.32 389.917 4220.32 382.583 4219.32 374.25H4251.57C4252.57 379.083 4255.23 383.25 4259.57 386.75C4264.07 390.083 4269.82 391.75 4276.82 391.75C4283.82 391.75 4288.9 390.333 4292.07 387.5C4295.4 384.667 4297.07 381.417 4297.07 377.75C4297.07 372.417 4294.73 368.833 4290.07 367C4285.4 365 4278.9 363.083 4270.57 361.25C4265.23 360.083 4259.82 358.667 4254.32 357C4248.82 355.333 4243.73 353.25 4239.07 350.75C4234.57 348.083 4230.9 344.75 4228.07 340.75C4225.23 336.583 4223.82 331.5 4223.82 325.5C4223.82 314.5 4228.15 305.25 4236.82 297.75C4245.65 290.25 4257.98 286.5 4273.82 286.5C4288.48 286.5 4300.15 289.917 4308.82 296.75C4317.65 303.583 4322.9 313 4324.57 325H4294.32C4292.48 315.833 4285.57 311.25 4273.57 311.25C4267.57 311.25 4262.9 312.417 4259.57 314.75C4256.4 317.083 4254.82 320 4254.82 323.5C4254.82 327.167 4257.23 330.083 4262.07 332.25C4266.9 334.417 4273.32 336.417 4281.32 338.25C4289.98 340.25 4297.9 342.5 4305.07 345C4312.4 347.333 4318.23 350.917 4322.57 355.75C4326.9 360.417 4329.07 367.167 4329.07 376C4329.23 383.667 4327.23 390.583 4323.07 396.75C4318.9 402.917 4312.9 407.75 4305.07 411.25C4297.23 414.75 4287.98 416.5 4277.32 416.5ZM4463.73 416.25C4450.9 416.25 4439.73 414.083 4430.23 409.75C4420.73 405.25 4413.32 399 4407.98 391C4402.82 383 4400.23 373.667 4400.23 363C4400.23 351.667 4403.4 341.417 4409.73 332.25C4416.07 323.083 4425.48 315.75 4437.98 310.25C4432.98 304.417 4429.4 298.917 4427.23 293.75C4425.07 288.583 4423.98 283.083 4423.98 277.25C4423.98 269.25 4425.98 262.167 4429.98 256C4433.98 249.667 4439.65 244.667 4446.98 241C4454.48 237.333 4463.4 235.5 4473.73 235.5C4484.23 235.5 4493.15 237.417 4500.48 241.25C4507.82 245.083 4513.32 250.25 4516.98 256.75C4520.82 263.25 4522.57 270.5 4522.23 278.5H4491.73C4491.73 272.333 4489.9 267.75 4486.23 264.75C4482.73 261.583 4478.48 260 4473.48 260C4467.82 260 4463.23 261.583 4459.73 264.75C4456.4 267.917 4454.73 272 4454.73 277C4454.73 281.167 4456.07 285.417 4458.73 289.75C4461.4 294.083 4465.32 299.083 4470.48 304.75L4519.48 353.25C4522.98 347.583 4526.65 341 4530.48 333.5L4535.98 322.5H4568.73L4559.98 339.5C4553.32 353 4546.65 364.417 4539.98 373.75L4580.23 413.5H4541.98L4522.48 394C4513.98 401.833 4504.9 407.5 4495.23 411C4485.73 414.5 4475.23 416.25 4463.73 416.25ZM4431.23 361C4431.23 369.167 4434.23 376.083 4440.23 381.75C4446.4 387.25 4454.57 390 4464.73 390C4479.23 390 4491.82 384.833 4502.48 374.5L4456.23 328.75C4447.73 332.417 4441.4 337 4437.23 342.5C4433.23 348 4431.23 354.167 4431.23 361ZM4723.17 416.5C4713.84 416.5 4705.67 414.75 4698.67 411.25C4691.67 407.75 4686 402.833 4681.67 396.5L4678.17 413.5H4649.67V233.5H4681.67V307.25C4685.67 301.75 4690.92 296.917 4697.42 292.75C4704.09 288.583 4712.67 286.5 4723.17 286.5C4734.84 286.5 4745.25 289.333 4754.42 295C4763.59 300.667 4770.84 308.417 4776.17 318.25C4781.5 328.083 4784.17 339.25 4784.17 351.75C4784.17 364.25 4781.5 375.417 4776.17 385.25C4770.84 394.917 4763.59 402.583 4754.42 408.25C4745.25 413.75 4734.84 416.5 4723.17 416.5ZM4716.42 388.5C4726.59 388.5 4735 385.083 4741.67 378.25C4748.34 371.417 4751.67 362.583 4751.67 351.75C4751.67 340.917 4748.34 332 4741.67 325C4735 318 4726.59 314.5 4716.42 314.5C4706.09 314.5 4697.59 318 4690.92 325C4684.42 331.833 4681.17 340.667 4681.17 351.5C4681.17 362.333 4684.42 371.25 4690.92 378.25C4697.59 385.083 4706.09 388.5 4716.42 388.5ZM4854.26 416.5C4838.76 416.5 4826.76 411.667 4818.26 402C4809.92 392.333 4805.76 378.167 4805.76 359.5V289.5H4837.51V356.5C4837.51 367.167 4839.67 375.333 4844.01 381C4848.34 386.667 4855.17 389.5 4864.51 389.5C4873.34 389.5 4880.59 386.333 4886.26 380C4892.09 373.667 4895.01 364.833 4895.01 353.5V289.5H4927.01V413.5H4898.76L4896.26 392.5C4892.42 399.833 4886.84 405.667 4879.51 410C4872.34 414.333 4863.92 416.5 4854.26 416.5ZM4972.11 270.25C4966.27 270.25 4961.44 268.5 4957.61 265C4953.94 261.5 4952.11 257.083 4952.11 251.75C4952.11 246.417 4953.94 242.083 4957.61 238.75C4961.44 235.25 4966.27 233.5 4972.11 233.5C4977.94 233.5 4982.69 235.25 4986.36 238.75C4990.19 242.083 4992.11 246.417 4992.11 251.75C4992.11 257.083 4990.19 261.5 4986.36 265C4982.69 268.5 4977.94 270.25 4972.11 270.25ZM4956.11 413.5V289.5H4988.11V413.5H4956.11ZM5016.51 413.5V233.5H5048.51V413.5H5016.51ZM5133.2 416.5C5121.54 416.5 5111.12 413.667 5101.95 408C5092.79 402.333 5085.54 394.583 5080.2 384.75C5074.87 374.917 5072.2 363.75 5072.2 351.25C5072.2 338.75 5074.87 327.667 5080.2 318C5085.54 308.167 5092.79 300.5 5101.95 295C5111.12 289.333 5121.54 286.5 5133.2 286.5C5142.54 286.5 5150.7 288.25 5157.7 291.75C5164.7 295.25 5170.37 300.167 5174.7 306.5V233.5H5206.7V413.5H5178.2L5174.7 395.75C5170.7 401.25 5165.37 406.083 5158.7 410.25C5152.2 414.417 5143.7 416.5 5133.2 416.5ZM5139.95 388.5C5150.29 388.5 5158.7 385.083 5165.2 378.25C5171.87 371.25 5175.2 362.333 5175.2 351.5C5175.2 340.667 5171.87 331.833 5165.2 325C5158.7 318 5150.29 314.5 5139.95 314.5C5129.79 314.5 5121.37 317.917 5114.7 324.75C5108.04 331.583 5104.7 340.417 5104.7 351.25C5104.7 362.083 5108.04 371 5114.7 378C5121.37 385 5129.79 388.5 5139.95 388.5ZM5331.61 416.5C5320.94 416.5 5312.19 414.833 5305.36 411.5C5298.53 408 5293.44 403.417 5290.11 397.75C5286.78 392.083 5285.11 385.833 5285.11 379C5285.11 367.5 5289.61 358.167 5298.61 351C5307.61 343.833 5321.11 340.25 5339.11 340.25H5370.61V337.25C5370.61 328.75 5368.19 322.5 5363.36 318.5C5358.53 314.5 5352.53 312.5 5345.36 312.5C5338.86 312.5 5333.19 314.083 5328.36 317.25C5323.53 320.25 5320.53 324.75 5319.36 330.75H5288.11C5288.94 321.75 5291.94 313.917 5297.11 307.25C5302.44 300.583 5309.28 295.5 5317.61 292C5325.94 288.333 5335.28 286.5 5345.61 286.5C5363.28 286.5 5377.19 290.917 5387.36 299.75C5397.53 308.583 5402.61 321.083 5402.61 337.25V413.5H5375.36L5372.36 393.5C5368.69 400.167 5363.53 405.667 5356.86 410C5350.36 414.333 5341.94 416.5 5331.61 416.5ZM5338.86 391.5C5348.03 391.5 5355.11 388.5 5360.11 382.5C5365.28 376.5 5368.53 369.083 5369.86 360.25H5342.61C5334.11 360.25 5328.03 361.833 5324.36 365C5320.69 368 5318.86 371.75 5318.86 376.25C5318.86 381.083 5320.69 384.833 5324.36 387.5C5328.03 390.167 5332.86 391.5 5338.86 391.5ZM5428.15 468.5V289.5H5456.65L5460.15 307.25C5464.15 301.75 5469.4 296.917 5475.9 292.75C5482.56 288.583 5491.15 286.5 5501.65 286.5C5513.31 286.5 5523.73 289.333 5532.9 295C5542.06 300.667 5549.31 308.417 5554.65 318.25C5559.98 328.083 5562.65 339.25 5562.65 351.75C5562.65 364.25 5559.98 375.417 5554.65 385.25C5549.31 394.917 5542.06 402.583 5532.9 408.25C5523.73 413.75 5513.31 416.5 5501.65 416.5C5492.31 416.5 5484.15 414.75 5477.15 411.25C5470.15 407.75 5464.48 402.833 5460.15 396.5V468.5H5428.15ZM5494.9 388.5C5505.06 388.5 5513.48 385.083 5520.15 378.25C5526.81 371.417 5530.15 362.583 5530.15 351.75C5530.15 340.917 5526.81 332 5520.15 325C5513.48 318 5505.06 314.5 5494.9 314.5C5484.56 314.5 5476.06 318 5469.4 325C5462.9 331.833 5459.65 340.667 5459.65 351.5C5459.65 362.333 5462.9 371.25 5469.4 378.25C5476.06 385.083 5484.56 388.5 5494.9 388.5ZM5586.23 468.5V289.5H5614.73L5618.23 307.25C5622.23 301.75 5627.48 296.917 5633.98 292.75C5640.65 288.583 5649.23 286.5 5659.73 286.5C5671.4 286.5 5681.82 289.333 5690.98 295C5700.15 300.667 5707.4 308.417 5712.73 318.25C5718.07 328.083 5720.73 339.25 5720.73 351.75C5720.73 364.25 5718.07 375.417 5712.73 385.25C5707.4 394.917 5700.15 402.583 5690.98 408.25C5681.82 413.75 5671.4 416.5 5659.73 416.5C5650.4 416.5 5642.23 414.75 5635.23 411.25C5628.23 407.75 5622.57 402.833 5618.23 396.5V468.5H5586.23ZM5652.98 388.5C5663.15 388.5 5671.57 385.083 5678.23 378.25C5684.9 371.417 5688.23 362.583 5688.23 351.75C5688.23 340.917 5684.9 332 5678.23 325C5671.57 318 5663.15 314.5 5652.98 314.5C5642.65 314.5 5634.15 318 5627.48 325C5620.98 331.833 5617.73 340.667 5617.73 351.5C5617.73 362.333 5620.98 371.25 5627.48 378.25C5634.15 385.083 5642.65 388.5 5652.98 388.5ZM5796.14 354.5V327.75H5931.14V354.5H5796.14ZM6092.07 413.5V376H6003.32V359.75L6088.32 238.5H6112.82V357.5H6138.82V376H6112.82V413.5H6092.07ZM6026.57 357.5H6093.07V261.75L6026.57 357.5ZM6219.1 413.5V289.5H6238.1L6239.6 307.5C6243.6 300.833 6248.93 295.667 6255.6 292C6262.26 288.333 6269.76 286.5 6278.1 286.5C6287.93 286.5 6296.35 288.5 6303.35 292.5C6310.51 296.5 6316.01 302.583 6319.85 310.75C6324.18 303.25 6330.1 297.333 6337.6 293C6345.26 288.667 6353.51 286.5 6362.35 286.5C6377.18 286.5 6389.01 291 6397.85 300C6406.68 308.833 6411.1 322.5 6411.1 341V413.5H6390.35V343.25C6390.35 330.417 6387.76 320.75 6382.6 314.25C6377.43 307.75 6370.01 304.5 6360.35 304.5C6350.35 304.5 6342.01 308.417 6335.35 316.25C6328.85 323.917 6325.6 334.917 6325.6 349.25V413.5H6304.6V343.25C6304.6 330.417 6302.01 320.75 6296.85 314.25C6291.68 307.75 6284.26 304.5 6274.6 304.5C6264.76 304.5 6256.51 308.417 6249.85 316.25C6243.35 323.917 6240.1 334.917 6240.1 349.25V413.5H6219.1ZM6450.48 262C6446.31 262 6442.81 260.667 6439.98 258C6437.31 255.167 6435.98 251.667 6435.98 247.5C6435.98 243.5 6437.31 240.167 6439.98 237.5C6442.81 234.833 6446.31 233.5 6450.48 233.5C6454.48 233.5 6457.9 234.833 6460.73 237.5C6463.56 240.167 6464.98 243.5 6464.98 247.5C6464.98 251.667 6463.56 255.167 6460.73 258C6457.9 260.667 6454.48 262 6450.48 262ZM6439.98 413.5V289.5H6460.98V413.5H6439.98ZM6492.54 413.5V289.5H6511.54L6512.79 311.75C6516.79 303.917 6522.54 297.75 6530.04 293.25C6537.54 288.75 6546.04 286.5 6555.54 286.5C6570.21 286.5 6581.88 291 6590.54 300C6599.38 308.833 6603.79 322.5 6603.79 341V413.5H6582.79V343.25C6582.79 317.417 6572.13 304.5 6550.79 304.5C6540.13 304.5 6531.21 308.417 6524.04 316.25C6517.04 323.917 6513.54 334.917 6513.54 349.25V413.5H6492.54Z" fill="black"/>
<path d="M7025 413V238H7089.25C7103.25 238 7114.75 240.417 7123.75 245.25C7132.92 249.917 7139.75 256.333 7144.25 264.5C7148.75 272.5 7151 281.417 7151 291.25C7151 301.917 7148.17 311.667 7142.5 320.5C7137 329.333 7128.33 335.75 7116.5 339.75L7152.75 413H7116L7083.5 344H7057V413H7025ZM7057 320.5H7087.25C7097.92 320.5 7105.75 317.917 7110.75 312.75C7115.75 307.583 7118.25 300.75 7118.25 292.25C7118.25 283.917 7115.75 277.25 7110.75 272.25C7105.92 267.25 7098 264.75 7087 264.75H7057V320.5ZM7227.69 416C7215.19 416 7204.11 413.333 7194.44 408C7184.78 402.667 7177.19 395.167 7171.69 385.5C7166.19 375.833 7163.44 364.667 7163.44 352C7163.44 339.167 7166.11 327.75 7171.44 317.75C7176.94 307.75 7184.44 300 7193.94 294.5C7203.61 288.833 7214.94 286 7227.94 286C7240.11 286 7250.86 288.667 7260.19 294C7269.53 299.333 7276.78 306.667 7281.94 316C7287.28 325.167 7289.94 335.417 7289.94 346.75C7289.94 348.583 7289.86 350.5 7289.69 352.5C7289.69 354.5 7289.61 356.583 7289.44 358.75H7195.19C7195.86 368.417 7199.19 376 7205.19 381.5C7211.36 387 7218.78 389.75 7227.44 389.75C7233.94 389.75 7239.36 388.333 7243.69 385.5C7248.19 382.5 7251.53 378.667 7253.69 374H7286.19C7283.86 381.833 7279.94 389 7274.44 395.5C7269.11 401.833 7262.44 406.833 7254.44 410.5C7246.61 414.167 7237.69 416 7227.69 416ZM7227.94 312C7220.11 312 7213.19 314.25 7207.19 318.75C7201.19 323.083 7197.36 329.75 7195.69 338.75H7257.44C7256.94 330.583 7253.94 324.083 7248.44 319.25C7242.94 314.417 7236.11 312 7227.94 312ZM7372.61 416C7359.94 416 7348.77 413.25 7339.11 407.75C7329.44 402.25 7321.77 394.583 7316.11 384.75C7310.61 374.917 7307.86 363.667 7307.86 351C7307.86 338.333 7310.61 327.083 7316.11 317.25C7321.77 307.417 7329.44 299.75 7339.11 294.25C7348.77 288.75 7359.94 286 7372.61 286C7388.44 286 7401.77 290.167 7412.61 298.5C7423.44 306.667 7430.36 318 7433.36 332.5H7399.61C7397.94 326.5 7394.61 321.833 7389.61 318.5C7384.77 315 7379.02 313.25 7372.36 313.25C7363.52 313.25 7356.02 316.583 7349.86 323.25C7343.69 329.917 7340.61 339.167 7340.61 351C7340.61 362.833 7343.69 372.083 7349.86 378.75C7356.02 385.417 7363.52 388.75 7372.36 388.75C7379.02 388.75 7384.77 387.083 7389.61 383.75C7394.61 380.417 7397.94 375.667 7399.61 369.5H7433.36C7430.36 383.5 7423.44 394.75 7412.61 403.25C7401.77 411.75 7388.44 416 7372.61 416ZM7517.01 416C7504.51 416 7493.43 413.333 7483.76 408C7474.09 402.667 7466.51 395.167 7461.01 385.5C7455.51 375.833 7452.76 364.667 7452.76 352C7452.76 339.167 7455.43 327.75 7460.76 317.75C7466.26 307.75 7473.76 300 7483.26 294.5C7492.93 288.833 7504.26 286 7517.26 286C7529.43 286 7540.18 288.667 7549.51 294C7558.84 299.333 7566.09 306.667 7571.26 316C7576.59 325.167 7579.26 335.417 7579.26 346.75C7579.26 348.583 7579.18 350.5 7579.01 352.5C7579.01 354.5 7578.93 356.583 7578.76 358.75H7484.51C7485.18 368.417 7488.51 376 7494.51 381.5C7500.68 387 7508.09 389.75 7516.76 389.75C7523.26 389.75 7528.68 388.333 7533.01 385.5C7537.51 382.5 7540.84 378.667 7543.01 374H7575.51C7573.18 381.833 7569.26 389 7563.76 395.5C7558.43 401.833 7551.76 406.833 7543.76 410.5C7535.93 414.167 7527.01 416 7517.01 416ZM7517.26 312C7509.43 312 7502.51 314.25 7496.51 318.75C7490.51 323.083 7486.68 329.75 7485.01 338.75H7546.76C7546.26 330.583 7543.26 324.083 7537.76 319.25C7532.26 314.417 7525.43 312 7517.26 312ZM7618.42 269.75C7612.59 269.75 7607.76 268 7603.92 264.5C7600.26 261 7598.42 256.583 7598.42 251.25C7598.42 245.917 7600.26 241.583 7603.92 238.25C7607.76 234.75 7612.59 233 7618.42 233C7624.26 233 7629.01 234.75 7632.67 238.25C7636.51 241.583 7638.42 245.917 7638.42 251.25C7638.42 256.583 7636.51 261 7632.67 264.5C7629.01 268 7624.26 269.75 7618.42 269.75ZM7602.42 413V289H7634.42V413H7602.42ZM7696.32 413L7650.82 289H7684.32L7715.82 382.75L7747.32 289H7780.82L7735.07 413H7696.32ZM7850.15 416C7837.65 416 7826.57 413.333 7816.9 408C7807.24 402.667 7799.65 395.167 7794.15 385.5C7788.65 375.833 7785.9 364.667 7785.9 352C7785.9 339.167 7788.57 327.75 7793.9 317.75C7799.4 307.75 7806.9 300 7816.4 294.5C7826.07 288.833 7837.4 286 7850.4 286C7862.57 286 7873.32 288.667 7882.65 294C7891.99 299.333 7899.24 306.667 7904.4 316C7909.74 325.167 7912.4 335.417 7912.4 346.75C7912.4 348.583 7912.32 350.5 7912.15 352.5C7912.15 354.5 7912.07 356.583 7911.9 358.75H7817.65C7818.32 368.417 7821.65 376 7827.65 381.5C7833.82 387 7841.24 389.75 7849.9 389.75C7856.4 389.75 7861.82 388.333 7866.15 385.5C7870.65 382.5 7873.99 378.667 7876.15 374H7908.65C7906.32 381.833 7902.4 389 7896.9 395.5C7891.57 401.833 7884.9 406.833 7876.9 410.5C7869.07 414.167 7860.15 416 7850.15 416ZM7850.4 312C7842.57 312 7835.65 314.25 7829.65 318.75C7823.65 323.083 7819.82 329.75 7818.15 338.75H7879.9C7879.4 330.583 7876.4 324.083 7870.9 319.25C7865.4 314.417 7858.57 312 7850.4 312ZM7985.57 416C7974.57 416 7964.9 414.25 7956.57 410.75C7948.24 407.083 7941.57 402.083 7936.57 395.75C7931.57 389.417 7928.57 382.083 7927.57 373.75H7959.82C7960.82 378.583 7963.49 382.75 7967.82 386.25C7972.32 389.583 7978.07 391.25 7985.07 391.25C7992.07 391.25 7997.15 389.833 8000.32 387C8003.65 384.167 8005.32 380.917 8005.32 377.25C8005.32 371.917 8002.99 368.333 7998.32 366.5C7993.65 364.5 7987.15 362.583 7978.82 360.75C7973.49 359.583 7968.07 358.167 7962.57 356.5C7957.07 354.833 7951.99 352.75 7947.32 350.25C7942.82 347.583 7939.15 344.25 7936.32 340.25C7933.49 336.083 7932.07 331 7932.07 325C7932.07 314 7936.4 304.75 7945.07 297.25C7953.9 289.75 7966.24 286 7982.07 286C7996.74 286 8008.4 289.417 8017.07 296.25C8025.9 303.083 8031.15 312.5 8032.82 324.5H8002.57C8000.74 315.333 7993.82 310.75 7981.82 310.75C7975.82 310.75 7971.15 311.917 7967.82 314.25C7964.65 316.583 7963.07 319.5 7963.07 323C7963.07 326.667 7965.49 329.583 7970.32 331.75C7975.15 333.917 7981.57 335.917 7989.57 337.75C7998.24 339.75 8006.15 342 8013.32 344.5C8020.65 346.833 8026.49 350.417 8030.82 355.25C8035.15 359.917 8037.32 366.667 8037.32 375.5C8037.49 383.167 8035.49 390.083 8031.32 396.25C8027.15 402.417 8021.15 407.25 8013.32 410.75C8005.49 414.25 7996.24 416 7985.57 416ZM8175.74 416C8162.9 416 8151.57 413.833 8141.74 409.5C8131.9 405 8124.15 398.667 8118.49 390.5C8112.82 382.167 8109.9 372.083 8109.74 360.25H8143.49C8143.82 368.417 8146.74 375.333 8152.24 381C8157.9 386.5 8165.65 389.25 8175.49 389.25C8183.99 389.25 8190.74 387.25 8195.74 383.25C8200.74 379.083 8203.24 373.583 8203.24 366.75C8203.24 359.583 8200.99 354 8196.49 350C8192.15 346 8186.32 342.75 8178.99 340.25C8171.65 337.75 8163.82 335.083 8155.49 332.25C8141.99 327.583 8131.65 321.583 8124.49 314.25C8117.49 306.917 8113.99 297.167 8113.99 285C8113.82 274.667 8116.24 265.833 8121.24 258.5C8126.4 251 8133.4 245.25 8142.24 241.25C8151.07 237.083 8161.24 235 8172.74 235C8184.4 235 8194.65 237.083 8203.49 241.25C8212.49 245.417 8219.49 251.25 8224.49 258.75C8229.65 266.25 8232.4 275.167 8232.74 285.5H8198.49C8198.32 279.333 8195.9 273.917 8191.24 269.25C8186.74 264.417 8180.4 262 8172.24 262C8165.24 261.833 8159.32 263.583 8154.49 267.25C8149.82 270.75 8147.49 275.917 8147.49 282.75C8147.49 288.583 8149.32 293.25 8152.99 296.75C8156.65 300.083 8161.65 302.917 8167.99 305.25C8174.32 307.583 8181.57 310.083 8189.74 312.75C8198.4 315.75 8206.32 319.25 8213.49 323.25C8220.65 327.25 8226.4 332.583 8230.74 339.25C8235.07 345.75 8237.24 354.167 8237.24 364.5C8237.24 373.667 8234.9 382.167 8230.24 390C8225.57 397.833 8218.65 404.167 8209.49 409C8200.32 413.667 8189.07 416 8175.74 416ZM8260.16 413V238H8298.16L8353.91 349L8408.91 238H8446.91V413H8414.91V292.25L8366.16 388H8340.91L8292.16 292.25V413H8260.16ZM8535.61 416C8522.78 416 8511.44 413.833 8501.61 409.5C8491.78 405 8484.03 398.667 8478.36 390.5C8472.69 382.167 8469.78 372.083 8469.61 360.25H8503.36C8503.69 368.417 8506.61 375.333 8512.11 381C8517.78 386.5 8525.53 389.25 8535.36 389.25C8543.86 389.25 8550.61 387.25 8555.61 383.25C8560.61 379.083 8563.11 373.583 8563.11 366.75C8563.11 359.583 8560.86 354 8556.36 350C8552.03 346 8546.19 342.75 8538.86 340.25C8531.53 337.75 8523.69 335.083 8515.36 332.25C8501.86 327.583 8491.53 321.583 8484.36 314.25C8477.36 306.917 8473.86 297.167 8473.86 285C8473.69 274.667 8476.11 265.833 8481.11 258.5C8486.28 251 8493.28 245.25 8502.11 241.25C8510.94 237.083 8521.11 235 8532.61 235C8544.28 235 8554.53 237.083 8563.36 241.25C8572.36 245.417 8579.36 251.25 8584.36 258.75C8589.53 266.25 8592.28 275.167 8592.61 285.5H8558.36C8558.19 279.333 8555.78 273.917 8551.11 269.25C8546.61 264.417 8540.28 262 8532.11 262C8525.11 261.833 8519.19 263.583 8514.36 267.25C8509.69 270.75 8507.36 275.917 8507.36 282.75C8507.36 288.583 8509.19 293.25 8512.86 296.75C8516.53 300.083 8521.53 302.917 8527.86 305.25C8534.19 307.583 8541.44 310.083 8549.61 312.75C8558.28 315.75 8566.19 319.25 8573.36 323.25C8580.53 327.25 8586.28 332.583 8590.61 339.25C8594.94 345.75 8597.11 354.167 8597.11 364.5C8597.11 373.667 8594.78 382.167 8590.11 390C8585.44 397.833 8578.53 404.167 8569.36 409C8560.19 413.667 8548.94 416 8535.61 416Z" fill="black"/>
<path d="M8877 416C8865 416 8854.58 413.833 8845.75 409.5C8836.92 405.167 8829.83 399.25 8824.5 391.75C8819.33 384.083 8816.17 375.417 8815 365.75H8835.5C8837.5 375.417 8842.17 383.25 8849.5 389.25C8856.83 395.083 8866.08 398 8877.25 398C8885.58 398 8892.75 396.083 8898.75 392.25C8904.75 388.25 8909.33 382.917 8912.5 376.25C8915.83 369.583 8917.5 362.167 8917.5 354C8917.5 341 8913.83 330.5 8906.5 322.5C8899.17 314.5 8889.67 310.5 8878 310.5C8868.33 310.5 8860.08 312.667 8853.25 317C8846.42 321.333 8841.42 327 8838.25 334H8818.25L8833.25 238H8925V256.25H8849.5L8839.25 309.5C8843.25 304.667 8848.75 300.667 8855.75 297.5C8862.92 294.333 8871.08 292.75 8880.25 292.75C8891.75 292.75 8901.75 295.417 8910.25 300.75C8918.92 306.083 8925.67 313.333 8930.5 322.5C8935.33 331.667 8937.75 342.083 8937.75 353.75C8937.75 364.917 8935.33 375.25 8930.5 384.75C8925.83 394.25 8918.92 401.833 8909.75 407.5C8900.75 413.167 8889.83 416 8877 416ZM9025.49 413V289H9044.49L9045.99 307C9049.99 300.333 9055.32 295.167 9061.99 291.5C9068.65 287.833 9076.15 286 9084.49 286C9094.32 286 9102.74 288 9109.74 292C9116.9 296 9122.4 302.083 9126.24 310.25C9130.57 302.75 9136.49 296.833 9143.99 292.5C9151.65 288.167 9159.9 286 9168.74 286C9183.57 286 9195.4 290.5 9204.24 299.5C9213.07 308.333 9217.49 322 9217.49 340.5V413H9196.74V342.75C9196.74 329.917 9194.15 320.25 9188.99 313.75C9183.82 307.25 9176.4 304 9166.74 304C9156.74 304 9148.4 307.917 9141.74 315.75C9135.24 323.417 9131.99 334.417 9131.99 348.75V413H9110.99V342.75C9110.99 329.917 9108.4 320.25 9103.24 313.75C9098.07 307.25 9090.65 304 9080.99 304C9071.15 304 9062.9 307.917 9056.24 315.75C9049.74 323.417 9046.49 334.417 9046.49 348.75V413H9025.49ZM9256.87 261.5C9252.7 261.5 9249.2 260.167 9246.37 257.5C9243.7 254.667 9242.37 251.167 9242.37 247C9242.37 243 9243.7 239.667 9246.37 237C9249.2 234.333 9252.7 233 9256.87 233C9260.87 233 9264.29 234.333 9267.12 237C9269.95 239.667 9271.37 243 9271.37 247C9271.37 251.167 9269.95 254.667 9267.12 257.5C9264.29 260.167 9260.87 261.5 9256.87 261.5ZM9246.37 413V289H9267.37V413H9246.37ZM9298.94 413V289H9317.94L9319.19 311.25C9323.19 303.417 9328.94 297.25 9336.44 292.75C9343.94 288.25 9352.44 286 9361.94 286C9376.6 286 9388.27 290.5 9396.94 299.5C9405.77 308.333 9410.19 322 9410.19 340.5V413H9389.19V342.75C9389.19 316.917 9378.52 304 9357.19 304C9346.52 304 9337.6 307.917 9330.44 315.75C9323.44 323.417 9319.94 334.417 9319.94 348.75V413H9298.94Z" fill="black"/>
</svg>
